<?xml version="1.0" encoding="UTF-8" standalone="no"?>
<!-- Created with Inkscape (http://www.inkscape.org/) -->

<svg
   xmlns:dc="http://purl.org/dc/elements/1.1/"
   xmlns:cc="http://creativecommons.org/ns#"
   xmlns:rdf="http://www.w3.org/1999/02/22-rdf-syntax-ns#"
   xmlns:svg="http://www.w3.org/2000/svg"
   xmlns="http://www.w3.org/2000/svg"
   xmlns:sodipodi="http://sodipodi.sourceforge.net/DTD/sodipodi-0.dtd"
   xmlns:inkscape="http://www.inkscape.org/namespaces/inkscape"
   version="1.1"
   width="297mm"
   height="210mm"
   id="svg3840"
   inkscape:version="0.48.3.1 r9886"
   sodipodi:docname="logo-longsal-meriling.svg">
  <sodipodi:namedview
     pagecolor="#ffffff"
     bordercolor="#666666"
     borderopacity="1"
     objecttolerance="10"
     gridtolerance="10"
     guidetolerance="10"
     inkscape:pageopacity="0"
     inkscape:pageshadow="2"
     inkscape:window-width="1366"
     inkscape:window-height="713"
     id="namedview3046"
     showgrid="false"
     inkscape:zoom="8"
     inkscape:cx="311.83278"
     inkscape:cy="541.33194"
     inkscape:window-x="-2"
     inkscape:window-y="-3"
     inkscape:window-maximized="1"
     inkscape:current-layer="g3632" />
  <defs
     id="defs3842" />
  <metadata
     id="metadata3846">
    <rdf:RDF>
      <cc:Work
         rdf:about="">
        <dc:format>image/svg+xml</dc:format>
        <dc:type
           rdf:resource="http://purl.org/dc/dcmitype/StillImage" />
        <dc:title></dc:title>
      </cc:Work>
    </rdf:RDF>
  </metadata>
  <g
     id="layer1"
     inkscape:export-filename="/home/kam/Projects/meriling/meriling/images/logo-meriling-longsal.png"
     inkscape:export-xdpi="200"
     inkscape:export-ydpi="200">
    <g
       transform="matrix(1.25,0,0,-1.25,-1131.3336,763.17393)"
       id="g3632">
      <g
         transform="translate(1127.9578,455.4844)"
         id="g3672">
        <path
           d="m 0,0 c -0.474,-0.398 -1.031,-0.6 -1.659,-0.6 -0.416,0 -0.712,0.078 -0.879,0.231 -0.189,0.181 -0.288,0.527 -0.295,1.026 l -10e-4,1.708 c -10e-4,0.447 0.016,1.436 0.048,2.942 1.183,-0.04 2.1,-0.357 2.728,-0.944 C 0.526,3.815 0.823,3.057 0.823,2.111 0.824,1.168 0.547,0.458 0,0 m 0.614,5.174 c -0.842,0.538 -1.976,0.811 -3.379,0.811 -0.824,0 -1.608,-0.023 -2.332,-0.066 L -5.168,5.915 -5.178,5.844 C -5.193,5.741 -5.2,5.636 -5.2,5.533 l 0,-0.077 0.076,-0.009 c 0.67,-0.089 0.853,-0.192 0.903,-0.245 0.049,-0.053 0.135,-0.234 0.153,-0.855 0.015,-0.545 0.023,-1.212 0.024,-1.983 0,-0.554 -0.014,-1.275 -0.042,-2.143 -0.016,-0.485 -0.106,-0.682 -0.179,-0.76 -0.072,-0.08 -0.262,-0.185 -0.755,-0.235 L -5.078,-0.78 -5.095,-0.836 C -5.119,-0.916 -5.13,-1.021 -5.13,-1.16 l 0.011,-0.087 0.087,0 c 0.219,0 0.681,-0.003 1.387,-0.01 0.706,-0.006 1.183,-0.009 1.429,-0.009 l 0.012,0 c 1.322,0.001 2.358,0.255 3.081,0.754 C 1.723,0.073 2.152,0.974 2.151,2.166 2.15,3.501 1.633,4.513 0.614,5.174"
           id="path3674"
           style="fill:#19255f;fill-opacity:1;fill-rule:nonzero;stroke:none" />
      </g>
      <g
         transform="translate(1136.0104,456.8672)"
         id="g3676">
        <path
           d="m 0,0 -0.067,0 -0.017,-0.064 c -0.112,-0.412 -0.224,-0.742 -0.335,-0.978 -0.188,-0.39 -0.466,-0.652 -0.826,-0.779 -0.309,-0.11 -0.859,-0.166 -1.636,-0.167 l -1.193,-0.001 c 0.619,0.937 1.14,1.703 1.55,2.275 0.512,0.705 0.881,1.21 1.109,1.517 0.741,1.011 1.302,1.716 1.667,2.095 l 0.02,0.021 0.004,0.028 C 0.298,4.124 0.271,4.321 0.196,4.533 L 0.175,4.59 -5.245,4.586 -5.257,4.513 C -5.392,3.69 -5.42,2.91 -5.341,2.194 L -5.336,2.15 -5.297,2.128 c 0.064,-0.037 0.166,-0.054 0.321,-0.054 l 0.073,0 0.012,0.072 c 0.077,0.428 0.148,0.74 0.21,0.927 0.127,0.382 0.353,0.622 0.691,0.735 0.296,0.097 0.876,0.146 1.724,0.147 l 0.793,0 C -1.938,3.203 -2.501,2.366 -3.147,1.466 -3.462,1.024 -3.835,0.514 -4.255,-0.05 -4.939,-0.976 -5.446,-1.609 -5.761,-1.931 l -0.021,-0.021 -0.003,-0.03 c -0.023,-0.192 0.004,-0.389 0.08,-0.586 l 0.022,-0.056 5.642,0.005 0.02,0.061 c 0.235,0.758 0.376,1.57 0.418,2.413 l 0.002,0.051 -0.043,0.028 C 0.283,-0.021 0.17,0 0,0"
           id="path3678"
           style="fill:#19255f;fill-opacity:1;fill-rule:nonzero;stroke:none" />
      </g>
      <g
         transform="translate(1141.6758,455.3876)"
         id="g3680">
        <path
           d="m 0,0 c -0.329,-0.411 -0.819,-0.619 -1.459,-0.62 -0.596,0 -1.086,0.236 -1.458,0.704 -0.455,0.55 -0.686,1.372 -0.687,2.442 -10e-4,0.931 0.195,1.69 0.581,2.256 0.355,0.521 0.862,0.774 1.549,0.775 l 0.002,0.087 0,-0.087 c 0.699,0 1.223,-0.3 1.6,-0.917 C 0.474,4.073 0.651,3.316 0.651,2.39 0.652,1.348 0.433,0.544 0,0 M -1.527,6.212 C -2.502,6.211 -3.317,5.86 -3.95,5.167 -4.617,4.442 -4.947,3.502 -4.931,2.374 c 0.015,-1.462 0.507,-2.513 1.462,-3.124 0.537,-0.348 1.216,-0.525 2.017,-0.525 l 0.005,0 c 0.996,10e-4 1.827,0.347 2.47,1.028 0.642,0.679 0.96,1.622 0.945,2.799 C 1.952,4.015 1.441,5.07 0.451,5.688 -0.108,6.036 -0.772,6.212 -1.527,6.212"
           id="path3682"
           style="fill:#19255f;fill-opacity:1;fill-rule:nonzero;stroke:none" />
      </g>
      <g
         transform="translate(1150.8534,456.9731)"
         id="g3684">
        <path
           d="m 0,0 0.053,0.01 0.015,0.052 c 0.01,0.037 0.024,0.112 0.024,0.333 l 0,0.088 L -2.795,0.48 -2.804,0.403 C -2.818,0.274 -2.829,0.17 -2.836,0.091 l -0.008,-0.084 0.084,-0.01 c 0.678,-0.085 0.915,-0.188 0.995,-0.26 0.077,-0.069 0.172,-0.269 0.189,-0.83 0.013,-0.358 0.021,-0.642 0.022,-0.846 -0.347,-0.08 -0.648,-0.121 -0.898,-0.121 -1.799,0 -2.674,0.945 -2.676,2.889 -10e-4,0.91 0.21,1.668 0.628,2.256 0.416,0.586 0.925,0.871 1.558,0.872 1.167,0 1.794,-0.606 1.919,-1.852 l 0.008,-0.079 0.079,0 c 0.149,0 0.259,0.017 0.334,0.05 l 0.043,0.02 0.008,0.045 c 0.1,0.589 0.132,1.241 0.095,1.941 L -0.457,4.107 -0.628,4.358 -0.661,4.365 C -1.388,4.543 -2.122,4.633 -2.849,4.633 -4.068,4.632 -5.01,4.203 -5.65,3.357 -6.192,2.633 -6.467,1.71 -6.466,0.614 c 0.001,-1.174 0.36,-2.076 1.068,-2.68 0.611,-0.523 1.429,-0.788 2.433,-0.788 l 0.005,0 c 0.843,10e-4 1.694,0.11 2.53,0.325 l 0.069,0.018 -0.004,0.071 c -0.021,0.397 -0.032,0.887 -0.033,1.458 0,0.405 0.021,0.565 0.04,0.631 C -0.309,-0.148 -0.195,-0.037 0,0"
           id="path3686"
           style="fill:#19255f;fill-opacity:1;fill-rule:nonzero;stroke:none" />
      </g>
      <g
         transform="translate(1155.0956,460.9355)"
         id="g3688">
        <path
           d="m 0,0 c 1.116,0 1.719,-0.606 1.845,-1.852 l 0.008,-0.079 0.079,0 c 0.149,0.001 0.258,0.017 0.334,0.051 l 0.042,0.019 0.008,0.046 c 0.1,0.588 0.132,1.24 0.096,1.941 L 2.41,0.15 2.239,0.401 2.207,0.408 C 1.508,0.586 0.799,0.676 0.093,0.676 -1.098,0.675 -2.019,0.25 -2.644,-0.589 c -0.528,-0.71 -0.796,-1.636 -0.795,-2.753 10e-4,-1.158 0.323,-2.052 0.958,-2.656 0.562,-0.539 1.324,-0.813 2.267,-0.813 l 0.004,0 c 0.987,0.001 1.872,0.247 2.63,0.731 l 0.024,0.016 0.01,0.027 c 0.048,0.128 0.056,0.291 0.026,0.483 L 2.461,-5.441 2.357,-5.489 c -0.661,-0.307 -1.302,-0.463 -1.91,-0.463 -0.843,0 -1.492,0.251 -1.927,0.747 -0.418,0.479 -0.63,1.178 -0.631,2.077 -10e-4,0.903 0.203,1.661 0.607,2.252 C -1.102,-0.287 -0.61,0 0,0"
           id="path3690"
           style="fill:#19255f;fill-opacity:1;fill-rule:nonzero;stroke:none" />
      </g>
      <g
         transform="translate(1163.7361,454.988)"
         id="g3692">
        <path
           d="M 0,0 C -0.076,-0.084 -0.269,-0.194 -0.758,-0.245 L -0.826,-0.252 -0.835,-0.319 C -0.85,-0.422 -0.858,-0.527 -0.858,-0.63 l 0.001,-0.088 3.408,0.003 0.01,0.075 c 0.015,0.104 0.022,0.209 0.022,0.311 l 0,0.078 -0.077,0.009 C 1.87,-0.166 1.656,-0.064 1.588,0.008 1.52,0.079 1.438,0.286 1.429,0.868 1.422,1.256 1.418,1.938 1.417,2.894 c 0,0.569 0.01,1.287 0.03,2.134 0.006,0.37 0.061,0.624 0.162,0.753 0.097,0.124 0.338,0.207 0.697,0.24 l 0.069,0.006 0.01,0.069 C 2.4,6.2 2.407,6.305 2.407,6.407 L 2.406,6.494 -0.916,6.491 -0.927,6.416 C -0.941,6.313 -0.949,6.208 -0.949,6.105 l 0,-0.076 0.076,-0.01 C -0.206,5.93 -0.018,5.824 0.034,5.768 0.086,5.714 0.176,5.529 0.195,4.909 0.202,4.592 0.206,4.066 0.207,3.342 -0.341,3.335 -0.924,3.332 -1.542,3.331 l -0.153,0 c -0.56,0 -1.064,0.003 -1.51,0.008 10e-4,0.391 0.011,0.956 0.03,1.685 0.007,0.368 0.066,0.618 0.177,0.744 0.111,0.125 0.362,0.209 0.747,0.249 l 0.066,0.007 0.011,0.066 c 0.022,0.134 0.033,0.236 0.033,0.313 l 0,0.087 L -5.538,6.488 -5.549,6.413 C -5.563,6.309 -5.571,6.205 -5.571,6.102 l 0,-0.077 0.076,-0.01 c 0.67,-0.089 0.854,-0.192 0.903,-0.245 0.05,-0.053 0.136,-0.235 0.154,-0.866 0.014,-0.54 0.022,-1.218 0.023,-2.015 0,-0.558 -0.013,-1.279 -0.041,-2.142 -0.017,-0.477 -0.11,-0.674 -0.185,-0.756 -0.074,-0.081 -0.265,-0.189 -0.75,-0.24 L -5.449,-0.255 -5.466,-0.31 C -5.49,-0.391 -5.501,-0.497 -5.501,-0.634 l 0,-0.088 3.387,0.003 0.01,0.075 c 0.015,0.105 0.022,0.21 0.022,0.311 l 0,0.077 -0.076,0.01 c -0.649,0.08 -0.829,0.189 -0.879,0.247 -0.061,0.072 -0.137,0.279 -0.145,0.862 -0.013,0.944 -0.021,1.531 -0.023,1.76 0.956,0.02 2.1,0.024 3.412,0.013 C 0.206,2.156 0.196,1.521 0.177,0.749 0.17,0.374 0.111,0.122 0,0"
           id="path3694"
           style="fill:#19255f;fill-opacity:1;fill-rule:nonzero;stroke:none" />
      </g>
      <g
         transform="translate(1172.4337,455.438)"
         id="g3696">
        <path
           d="m 0,0 c 0.093,0.488 0.14,0.91 0.139,1.255 l 0,0.05 -0.044,0.026 C 0.03,1.367 -0.078,1.384 -0.247,1.384 l -0.068,0 -0.017,-0.066 C -0.49,0.674 -0.701,0.214 -0.959,-0.051 c -0.315,-0.316 -0.797,-0.477 -1.435,-0.477 -0.443,0 -0.756,0.083 -0.93,0.247 -0.173,0.164 -0.261,0.489 -0.262,0.967 -0.006,0.821 -0.009,1.329 -0.011,1.523 0.85,-0.013 1.501,-0.042 1.939,-0.084 10e-4,-0.238 0.004,-0.369 0.011,-0.424 l 0.01,-0.076 0.077,0 c 0.122,0 0.224,0.012 0.303,0.036 l 0.039,0.012 0.016,0.039 c 0.131,0.32 0.205,0.686 0.219,1.086 L -0.979,2.892 -1.073,2.889 C -1.948,2.854 -2.797,2.835 -3.598,2.833 c 0,0.736 0.013,1.604 0.038,2.58 l 0.281,0 c 0.796,0 1.332,-0.035 1.592,-0.102 0.301,-0.085 0.492,-0.268 0.583,-0.56 0.056,-0.179 0.098,-0.428 0.126,-0.741 l 0.007,-0.079 0.08,0 c 0.229,0 0.297,0.023 0.334,0.045 l 0.032,0.019 0.008,0.036 c 0.079,0.347 0.12,0.813 0.119,1.386 0,0.203 -0.007,0.388 -0.022,0.552 L -0.427,6.049 -5.942,6.044 -5.952,5.969 C -5.967,5.866 -5.974,5.762 -5.974,5.659 l 0,-0.077 0.075,-0.01 C -5.28,5.487 -5.068,5.383 -5,5.311 -4.932,5.239 -4.848,5.033 -4.831,4.461 -4.816,3.928 -4.808,3.25 -4.808,2.446 -4.807,1.722 -4.821,0.997 -4.849,0.293 -4.865,-0.183 -4.958,-0.377 -5.032,-0.456 -5.107,-0.536 -5.298,-0.641 -5.784,-0.692 L -5.853,-0.699 -5.861,-0.768 C -5.876,-0.89 -5.886,-0.991 -5.893,-1.07 l -0.008,-0.095 5.588,0.005 0.021,0.056 C -0.184,-0.825 -0.086,-0.453 0,0"
           id="path3698"
           style="fill:#19255f;fill-opacity:1;fill-rule:nonzero;stroke:none" />
      </g>
      <g
         transform="translate(1179.7649,460.0032)"
         id="g3700">
        <path
           d="m 0,0 c 0.025,0.507 0.105,0.712 0.169,0.795 0.085,0.113 0.295,0.19 0.606,0.223 L 0.843,1.025 0.852,1.092 C 0.867,1.196 0.874,1.3 0.874,1.404 l 0,0.087 -2.96,-0.003 -0.01,-0.075 C -2.111,1.31 -2.118,1.206 -2.118,1.102 l 0,-0.078 0.077,-0.009 c 0.493,-0.054 0.823,-0.148 0.977,-0.276 0.173,-0.153 0.267,-0.459 0.281,-0.909 0.028,-0.801 0.043,-2.019 0.046,-3.625 -0.664,0.776 -1.233,1.464 -1.693,2.048 -1.529,1.936 -2.362,3.01 -2.473,3.192 L -4.929,1.486 -7.05,1.484 -7.06,1.409 C -7.074,1.306 -7.082,1.201 -7.082,1.098 l 0,-0.077 0.076,-0.009 c 0.688,-0.089 0.877,-0.198 0.929,-0.255 0.051,-0.056 0.139,-0.248 0.149,-0.898 0.007,-0.297 0.004,-0.942 -0.009,-1.972 C -5.944,-2.79 -5.961,-3.497 -5.989,-4.214 -6.005,-4.692 -6.091,-4.89 -6.163,-4.977 -6.268,-5.119 -6.51,-5.212 -6.881,-5.251 l -0.067,-0.008 -0.01,-0.067 C -6.973,-5.43 -6.98,-5.534 -6.98,-5.638 l 0,-0.087 3.098,0.003 0.011,0.075 c 0.015,0.105 0.022,0.209 0.022,0.311 l 0,0.078 -0.078,0.009 c -0.511,0.054 -0.847,0.16 -0.999,0.315 -0.151,0.154 -0.238,0.458 -0.258,0.903 -0.021,0.53 -0.033,1.802 -0.036,3.783 0.448,-0.53 1.077,-1.299 1.875,-2.292 1.445,-1.789 2.305,-2.906 2.558,-3.319 l 0.027,-0.043 0.05,0.001 c 0.306,0.008 0.522,0.063 0.659,0.168 l 0.036,0.027 -0.001,0.045 c -0.029,0.799 -0.041,1.983 -0.036,3.519 C -0.045,-1.352 -0.028,-0.631 0,0"
           id="path3702"
           style="fill:#19255f;fill-opacity:1;fill-rule:nonzero;stroke:none" />
      </g>
      <g
         transform="translate(1189.5751,455.5076)"
         id="g3704">
        <path
           d="m 0,0 -0.104,-0.048 c -0.661,-0.307 -1.302,-0.463 -1.909,-0.464 -0.844,0 -1.493,0.252 -1.928,0.748 -0.418,0.479 -0.631,1.178 -0.631,2.077 -0.001,0.903 0.203,1.661 0.607,2.252 0.402,0.589 0.893,0.875 1.504,0.876 1.116,0 1.719,-0.606 1.844,-1.852 l 0.008,-0.079 0.079,0 c 0.15,0 0.259,0.017 0.335,0.051 l 0.042,0.019 0.008,0.046 c 0.1,0.587 0.132,1.24 0.096,1.941 l -0.002,0.024 -0.171,0.25 -0.032,0.008 C -0.954,6.027 -1.662,6.117 -2.368,6.117 -3.558,6.116 -4.479,5.69 -5.106,4.852 -5.633,4.142 -5.901,3.215 -5.9,2.099 -5.899,0.94 -5.577,0.047 -4.942,-0.558 -4.38,-1.097 -3.618,-1.37 -2.675,-1.37 l 0.004,0 c 0.987,0.001 1.872,0.247 2.629,0.731 l 0.025,0.016 0.01,0.027 c 0.048,0.127 0.057,0.29 0.025,0.482 L 0,0 z"
           id="path3706"
           style="fill:#19255f;fill-opacity:1;fill-rule:nonzero;stroke:none" />
      </g>
      <g
         transform="translate(1194.9794,455.4176)"
         id="g3708">
        <path
           d="m 0,0 c -0.329,-0.411 -0.82,-0.619 -1.46,-0.62 -0.603,0 -1.079,0.23 -1.458,0.704 -0.454,0.55 -0.685,1.372 -0.686,2.442 -10e-4,0.931 0.194,1.69 0.58,2.257 0.356,0.52 0.863,0.774 1.55,0.774 l 0.002,0.088 0,-0.088 c 0.699,0 1.223,-0.3 1.6,-0.917 C 0.475,4.073 0.651,3.316 0.651,2.39 0.652,1.348 0.433,0.544 0,0 M 0.451,5.688 C -0.108,6.036 -0.772,6.212 -1.527,6.212 -2.502,6.211 -3.317,5.86 -3.95,5.168 -4.617,4.442 -4.947,3.502 -4.931,2.375 c 0.015,-1.463 0.507,-2.514 1.462,-3.125 0.538,-0.348 1.217,-0.525 2.018,-0.525 l 0.004,0 c 0.996,10e-4 1.827,0.347 2.47,1.028 0.642,0.68 0.96,1.622 0.945,2.8 C 1.952,4.015 1.442,5.07 0.451,5.688"
           id="path3710"
           style="fill:#19255f;fill-opacity:1;fill-rule:nonzero;stroke:none" />
      </g>
      <g
         transform="translate(1229.6807,461.446)"
         id="g3712">
        <path
           d="m 0,0 c -0.015,-0.102 -0.022,-0.206 -0.022,-0.311 l 0,-0.079 0.078,-0.008 c 0.492,-0.054 0.822,-0.148 0.976,-0.276 0.173,-0.154 0.268,-0.459 0.281,-0.91 0.028,-0.794 0.043,-2.012 0.046,-3.625 -0.66,0.772 -1.229,1.46 -1.693,2.048 -1.53,1.937 -2.362,3.011 -2.473,3.192 l -0.026,0.042 -4.982,-0.005 -0.01,-0.076 c -0.014,-0.115 -0.022,-0.219 -0.022,-0.31 l 0,-0.075 0.075,-0.011 c 0.581,-0.084 0.795,-0.22 0.873,-0.319 0.08,-0.102 0.183,-0.361 0.217,-1.018 0.036,-0.769 0.048,-1.697 0.034,-2.759 -0.019,-1.364 -0.65,-2.028 -1.931,-2.029 -0.717,0 -1.257,0.179 -1.607,0.531 -0.347,0.351 -0.521,0.889 -0.514,1.6 0.006,1.124 0.012,1.988 0.019,2.592 0.013,0.515 0.07,0.856 0.167,1.012 0.133,0.21 0.442,0.341 0.917,0.388 l 0.061,0.006 0.015,0.06 c 0.023,0.091 0.034,0.199 0.034,0.32 l 0,0.087 -3.621,-0.003 -0.168,0 -2.166,-0.002 -0.021,-0.057 c -0.354,-0.942 -0.812,-2.037 -1.361,-3.251 -0.326,-0.73 -0.633,-1.421 -0.922,-2.073 -0.285,0.646 -0.594,1.336 -0.926,2.072 -0.502,1.105 -0.961,2.198 -1.368,3.25 l -0.021,0.055 -2.335,-0.002 -0.018,-0.063 c -0.017,-0.059 -0.025,-0.162 -0.025,-0.323 l 0,-0.076 0.076,-0.01 c 0.677,-0.089 0.858,-0.196 0.906,-0.252 0.048,-0.057 0.127,-0.249 0.119,-0.897 -0.014,-0.569 -0.035,-1.223 -0.063,-1.963 -0.028,-0.742 -0.067,-1.452 -0.115,-2.111 -0.027,-0.398 -0.101,-0.662 -0.217,-0.79 -0.3,-0.332 -0.943,-0.251 -0.943,-0.251 -0.574,0.075 -0.778,0.185 -0.849,0.264 -0.071,0.08 -0.165,0.301 -0.208,0.903 -0.058,0.92 -0.094,1.584 -0.108,1.974 -0.036,0.655 -0.062,1.354 -0.077,2.078 -0.009,0.497 0.065,0.707 0.128,0.797 0.086,0.122 0.31,0.208 0.648,0.247 l 0.067,0.008 0.009,0.066 c 0.015,0.102 0.022,0.207 0.022,0.312 l 0,0.087 -2.165,-0.002 -0.021,-0.057 c -0.354,-0.943 -0.812,-2.037 -1.362,-3.251 -0.325,-0.73 -0.632,-1.421 -0.921,-2.073 -0.285,0.646 -0.594,1.336 -0.926,2.072 -0.502,1.105 -0.962,2.198 -1.368,3.25 l -0.021,0.055 -2.335,-0.002 -0.018,-0.063 c -0.018,-0.059 -0.025,-0.162 -0.025,-0.323 l 0,-0.076 0.076,-0.01 c 0.677,-0.089 0.858,-0.196 0.906,-0.252 0.048,-0.057 0.127,-0.249 0.119,-0.897 -0.014,-0.569 -0.035,-1.224 -0.063,-1.963 -0.028,-0.736 -0.066,-1.445 -0.115,-2.111 -0.027,-0.398 -0.1,-0.664 -0.217,-0.79 -0.116,-0.126 -0.358,-0.211 -0.719,-0.251 l -0.073,-0.008 -0.005,-0.074 c -0.007,-0.12 -0.014,-0.218 -0.021,-0.296 l -0.008,-0.095 3.001,0.003 0.018,0.063 c 0.016,0.059 0.025,0.164 0.024,0.323 l 0,0.078 -0.077,0.008 c -0.497,0.054 -0.823,0.155 -0.968,0.3 -0.142,0.142 -0.211,0.428 -0.205,0.849 0.014,0.548 0.031,1.21 0.052,1.983 l 0.087,1.704 c 0.38,-0.834 0.706,-1.567 0.974,-2.182 0.611,-1.404 1.053,-2.449 1.314,-3.102 l 0.024,-0.059 0.599,0.04 0.02,0.052 c 0.331,0.855 0.764,1.888 1.287,3.071 l 1.015,2.258 c 0.031,-0.54 0.064,-1.133 0.099,-1.776 0.029,-0.882 0.051,-1.579 0.066,-2.091 0.009,-0.511 -0.071,-0.718 -0.14,-0.802 -0.067,-0.083 -0.251,-0.191 -0.741,-0.242 l -0.068,-0.007 -0.01,-0.067 c -0.015,-0.104 -0.022,-0.208 -0.022,-0.311 l 0,-0.088 6.419,0.005 0.018,0.064 c 0.017,0.059 0.025,0.165 0.024,0.323 l 0,0.078 -0.077,0.009 c -0.497,0.054 -0.823,0.155 -0.968,0.299 -0.142,0.142 -0.211,0.428 -0.205,0.849 0.014,0.548 0.031,1.209 0.052,1.983 l 0.087,1.704 c 0.379,-0.831 0.706,-1.564 0.974,-2.182 0.611,-1.404 1.054,-2.449 1.314,-3.102 l 0.024,-0.059 0.599,0.04 0.02,0.052 c 0.331,0.855 0.764,1.888 1.287,3.071 l 1.015,2.258 c 0.031,-0.54 0.064,-1.132 0.099,-1.776 0.029,-0.882 0.051,-1.579 0.066,-2.091 0.009,-0.511 -0.071,-0.718 -0.14,-0.803 -0.067,-0.082 -0.25,-0.19 -0.741,-0.241 l -0.068,-0.007 -0.01,-0.067 c -0.014,-0.103 -0.022,-0.208 -0.022,-0.311 l 0,-0.088 3.344,0.003 0.011,0.075 c 0.014,0.105 0.022,0.21 0.022,0.312 l -10e-4,0.076 -0.075,0.01 c -0.574,0.075 -0.778,0.185 -0.849,0.264 -0.071,0.08 -0.165,0.301 -0.208,0.903 -0.057,0.92 -0.094,1.584 -0.108,1.974 -0.036,0.655 -0.062,1.354 -0.077,2.078 -0.009,0.497 0.065,0.708 0.128,0.797 0.086,0.122 0.31,0.208 0.648,0.247 0,0 0.065,0.015 0.309,0.001 0.654,-0.093 0.872,-0.202 0.941,-0.276 0.056,-0.061 0.153,-0.265 0.181,-0.943 0.021,-0.483 0.022,-1.436 0.002,-2.835 -0.01,-0.89 0.221,-1.579 0.685,-2.048 0.506,-0.511 1.298,-0.77 2.356,-0.77 l 0.005,0 c 1.033,0.001 1.809,0.295 2.308,0.876 0.403,0.484 0.61,1.131 0.617,1.923 0.02,1.203 0.037,2.131 0.051,2.786 0.016,0.61 0.079,0.856 0.128,0.955 0.093,0.185 0.326,0.305 0.637,0.338 0.497,0.052 0.991,-0.105 1.174,-0.254 0.059,-0.048 0.14,-0.249 0.149,-0.899 0.007,-0.296 0.004,-0.959 -0.009,-1.971 -0.007,-0.68 -0.024,-1.387 -0.052,-2.102 -0.016,-0.477 -0.102,-0.676 -0.174,-0.762 -0.105,-0.142 -0.347,-0.235 -0.718,-0.275 L -4.853,-6.673 -4.862,-6.74 c -0.015,-0.103 -0.022,-0.208 -0.022,-0.311 l 0,-0.087 3.098,0.002 0.011,0.075 c 0.015,0.105 0.022,0.21 0.022,0.312 l 0,0.078 -0.078,0.008 c -0.511,0.054 -0.847,0.16 -0.999,0.315 -0.151,0.154 -0.238,0.458 -0.258,0.903 -0.021,0.531 -0.033,1.803 -0.036,3.783 0.449,-0.531 1.078,-1.3 1.875,-2.292 1.446,-1.789 2.306,-2.906 2.558,-3.319 l 0.027,-0.043 0.05,10e-4 c 0.306,0.008 0.522,0.063 0.659,0.168 l 0.036,0.028 -0.002,0.045 c -0.028,0.806 -0.04,1.99 -0.034,3.518 0.006,0.797 0.023,1.518 0.051,2.143 0.025,0.507 0.105,0.712 0.169,0.795 0.085,0.113 0.295,0.19 0.606,0.222 l 0.068,0.007 0.009,0.068 c 0.015,0.102 0.022,0.206 0.022,0.311 l 0,0.087 L 0.011,0.075 0,0 z"
           id="path3714"
           style="fill:#19255f;fill-opacity:1;fill-rule:nonzero;stroke:none" />
      </g>
      <g
         transform="translate(1236.2732,454.79)"
         id="g3716">
        <path
           d="M 0,0 C -0.645,0.076 -0.868,0.181 -0.941,0.256 -1.013,0.33 -1.1,0.538 -1.109,1.11 c -0.015,0.77 -0.022,1.452 -0.023,2.026 0,0.558 0.013,1.276 0.041,2.132 0.013,0.377 0.071,0.633 0.173,0.76 0.097,0.123 0.321,0.202 0.665,0.235 l 0.068,0.006 0.01,0.068 c 0.015,0.102 0.022,0.207 0.022,0.312 l 0,0.087 L -3.475,6.733 -3.486,6.659 C -3.501,6.557 -3.508,6.452 -3.508,6.347 l 0,-0.076 0.075,-0.01 C -2.814,6.176 -2.603,6.072 -2.534,6 -2.467,5.928 -2.382,5.723 -2.365,5.15 -2.35,4.611 -2.342,3.933 -2.342,3.135 -2.341,2.403 -2.355,1.679 -2.383,0.982 -2.399,0.506 -2.492,0.312 -2.566,0.233 -2.642,0.153 -2.832,0.048 -3.318,-0.003 L -3.387,-0.01 -3.395,-0.079 C -3.41,-0.201 -3.42,-0.302 -3.427,-0.381 l -0.009,-0.095 3.48,0.003 0.011,0.075 c 0.015,0.105 0.022,0.209 0.022,0.311 l 0,0.078 L 0,0 z"
           id="path3718"
           style="fill:#19255f;fill-opacity:1;fill-rule:nonzero;stroke:none" />
      </g>
      <g
         transform="translate(1247.0903,461.4578)"
         id="g3720">
        <path
           d="m 0,0 c -0.014,-0.129 -0.022,-0.233 -0.022,-0.309 l 0,-0.076 0.076,-0.01 c 0.438,-0.058 0.651,-0.232 0.651,-0.532 0,-0.283 -0.226,-0.859 -0.671,-1.71 l -0.531,-0.979 c -0.137,0.26 -0.301,0.58 -0.489,0.954 -0.405,0.809 -0.611,1.371 -0.611,1.669 0,0.337 0.223,0.532 0.682,0.597 l 0.06,0.009 0.013,0.059 c 0.023,0.105 0.034,0.211 0.034,0.318 l 0,0.087 -9.821,-0.008 -0.013,-0.072 c -0.135,-0.745 -0.174,-1.571 -0.116,-2.455 l 0.003,-0.05 0.045,-0.023 c 0.07,-0.035 0.181,-0.051 0.35,-0.051 l 0.074,0 0.012,0.073 c 0.104,0.635 0.216,1.072 0.333,1.298 0.146,0.285 0.408,0.469 0.798,0.564 0.209,0.046 0.549,0.073 1.01,0.083 0.007,-0.502 0.011,-1.519 0.012,-3.029 0.001,-0.714 -0.01,-1.406 -0.03,-2.057 -0.013,-0.382 -0.08,-0.639 -0.197,-0.765 -0.117,-0.126 -0.384,-0.211 -0.791,-0.251 l -0.068,-0.007 -0.01,-0.068 c -0.014,-0.103 -0.022,-0.208 -0.022,-0.311 l 0,-0.087 3.335,0.002 0.018,0.065 c 0.023,0.085 0.035,0.193 0.035,0.322 l -0.001,0.077 -0.076,0.009 c -0.554,0.067 -0.749,0.174 -0.814,0.252 -0.066,0.079 -0.148,0.296 -0.156,0.88 -0.008,0.389 -0.012,1.024 -0.013,1.94 0,0.647 0.009,1.638 0.029,3.029 0.432,-0.009 0.753,-0.033 0.951,-0.071 0.379,-0.086 0.644,-0.255 0.787,-0.501 0.087,-0.154 0.156,-0.378 0.205,-0.67 0.035,-0.158 0.063,-0.391 0.084,-0.692 l 0.006,-0.081 0.081,10e-4 c 0.167,0 0.278,0.016 0.349,0.052 l 0.04,0.02 0.007,0.044 c 0.108,0.691 0.146,1.369 0.112,2.053 0.396,-0.11 0.708,-0.294 0.929,-0.547 0.201,-0.235 0.532,-0.797 0.983,-1.669 0.369,-0.715 0.667,-1.307 0.889,-1.762 -0.014,-0.751 -0.024,-1.172 -0.031,-1.29 -0.013,-0.373 -0.083,-0.623 -0.207,-0.741 -0.127,-0.121 -0.404,-0.203 -0.824,-0.244 l -0.07,-0.006 -0.008,-0.07 C -2.613,-6.86 -2.624,-6.96 -2.631,-7.039 l -0.008,-0.095 3.523,0.003 0.01,0.075 c 0.015,0.105 0.023,0.209 0.022,0.311 l 0,0.078 -0.077,0.009 c -0.599,0.067 -0.809,0.175 -0.879,0.253 -0.071,0.079 -0.159,0.293 -0.176,0.857 -0.008,0.3 -0.011,0.691 -0.012,1.17 l 1.012,1.752 c 0.55,0.954 0.896,1.522 1.027,1.688 0.207,0.262 0.49,0.446 0.841,0.547 l 0.049,0.015 0.012,0.051 c 0.016,0.069 0.023,0.173 0.023,0.317 l 0,0.088 L 0.009,0.077 0,0 z"
           id="path3722"
           style="fill:#19255f;fill-opacity:1;fill-rule:nonzero;stroke:none" />
      </g>
      <g
         transform="translate(1123.7135,469.9776)"
         id="g3724">
        <path
           d="M 0,0 C 0.068,-0.073 0.152,-0.279 0.168,-0.85 0.183,-1.398 0.19,-2.076 0.19,-2.866 0.19,-3.598 0.176,-4.323 0.148,-5.02 0.134,-5.402 0.072,-5.654 -0.037,-5.769 -0.112,-5.849 -0.303,-5.954 -0.789,-6.005 l -0.069,-0.007 -0.008,-0.069 c -0.015,-0.122 -0.026,-0.223 -0.033,-0.302 l -0.008,-0.095 3.48,0 0.011,0.075 c 0.015,0.105 0.023,0.207 0.023,0.312 l 0,0.077 -0.077,0.009 C 1.884,-5.928 1.662,-5.823 1.589,-5.747 1.517,-5.674 1.43,-5.466 1.421,-4.893 1.407,-4.074 1.4,-3.41 1.4,-2.866 c 0,0.544 0.014,1.242 0.042,2.132 0.015,0.378 0.073,0.634 0.173,0.76 0.098,0.122 0.329,0.203 0.667,0.234 L 2.35,0.267 2.36,0.335 c 0.015,0.1 0.022,0.202 0.022,0.312 l 0,0.087 -3.323,0 -0.01,-0.075 C -0.967,0.553 -0.974,0.451 -0.974,0.347 l 0,-0.076 0.075,-0.01 C -0.28,0.177 -0.068,0.073 0,0"
           id="path3726"
           style="fill:#19255f;fill-opacity:1;fill-rule:nonzero;stroke:none" />
      </g>
      <g
         transform="translate(1127.4285,469.984)"
         id="g3728">
        <path
           d="M 0,0 C 0.052,-0.057 0.139,-0.248 0.148,-0.899 0.156,-1.197 0.152,-1.842 0.138,-2.872 0.13,-3.546 0.112,-4.253 0.084,-4.973 0.068,-5.451 -0.019,-5.649 -0.091,-5.736 -0.197,-5.878 -0.439,-5.971 -0.81,-6.011 l -0.067,-0.007 -0.01,-0.067 C -0.902,-6.19 -0.909,-6.291 -0.909,-6.397 l 0,-0.087 3.1,0 0.011,0.076 c 0.014,0.109 0.022,0.211 0.022,0.31 l 0,0.079 -0.078,0.008 C 1.635,-5.956 1.299,-5.85 1.147,-5.695 0.995,-5.54 0.909,-5.236 0.889,-4.792 0.868,-4.251 0.858,-2.979 0.857,-1.007 1.305,-1.539 1.934,-2.309 2.73,-3.301 4.174,-5.091 5.034,-6.209 5.286,-6.623 l 0.026,-0.044 0.051,0.002 c 0.305,0.008 0.522,0.062 0.66,0.167 l 0.036,0.027 -0.002,0.045 c -0.028,0.798 -0.039,1.949 -0.032,3.521 0.006,0.779 0.024,1.5 0.053,2.142 0.026,0.507 0.106,0.712 0.169,0.795 0.087,0.114 0.297,0.191 0.607,0.222 l 0.067,0.007 0.01,0.067 C 6.947,0.431 6.954,0.533 6.954,0.64 l 0,0.088 -2.96,0 L 3.983,0.653 C 3.968,0.549 3.96,0.444 3.96,0.341 l 0,-0.078 0.078,-0.009 C 4.531,0.199 4.86,0.106 5.015,-0.023 c 0.172,-0.153 0.267,-0.459 0.28,-0.909 0.027,-0.79 0.041,-2.01 0.043,-3.627 -0.681,0.797 -1.236,1.47 -1.692,2.051 -1.529,1.939 -2.361,3.013 -2.471,3.194 l -0.026,0.042 -2.12,0 -0.012,-0.075 C -0.998,0.55 -1.005,0.448 -1.005,0.341 l 0,-0.077 0.076,-0.01 C -0.241,0.166 -0.052,0.057 0,0"
           id="path3730"
           style="fill:#19255f;fill-opacity:1;fill-rule:nonzero;stroke:none" />
      </g>
      <g
         transform="translate(1134.424,468.1332)"
         id="g3732">
        <path
           d="m 0,0 0.045,-0.022 c 0.072,-0.035 0.183,-0.051 0.35,-0.051 l 0.074,0 L 0.481,0 C 0.587,0.636 0.7,1.073 0.816,1.298 0.963,1.582 1.225,1.767 1.616,1.861 1.825,1.907 2.165,1.935 2.625,1.944 2.632,1.446 2.635,0.428 2.635,-1.085 2.635,-1.8 2.624,-2.493 2.603,-3.144 2.589,-3.526 2.522,-3.784 2.404,-3.909 2.288,-4.035 2.022,-4.119 1.614,-4.16 L 1.545,-4.167 1.536,-4.235 C 1.521,-4.341 1.514,-4.443 1.514,-4.546 l 0,-0.087 3.336,0 0.017,0.064 c 0.024,0.088 0.035,0.196 0.035,0.322 l 0,0.077 -0.077,0.009 c -0.554,0.068 -0.748,0.175 -0.814,0.253 -0.066,0.08 -0.147,0.297 -0.155,0.88 -0.007,0.382 -0.011,0.999 -0.011,1.943 0,0.675 0.011,1.693 0.031,3.029 C 4.307,1.935 4.628,1.911 4.827,1.872 5.206,1.786 5.471,1.616 5.615,1.371 5.703,1.214 5.771,0.989 5.819,0.699 5.853,0.542 5.881,0.31 5.903,0.008 l 0.006,-0.081 0.081,0 c 0.167,0 0.278,0.016 0.348,0.051 l 0.041,0.02 0.007,0.045 c 0.128,0.82 0.157,1.646 0.086,2.456 L 6.465,2.578 0.13,2.578 0.116,2.507 C -0.02,1.759 -0.06,0.933 -0.003,0.051 L 0,0 z"
           id="path3734"
           style="fill:#19255f;fill-opacity:1;fill-rule:nonzero;stroke:none" />
      </g>
      <g
         transform="translate(1142.0049,469.9779)"
         id="g3736">
        <path
           d="M 0,0 C 0.068,-0.073 0.152,-0.279 0.168,-0.851 0.183,-1.386 0.19,-2.065 0.19,-2.867 0.19,-3.604 0.176,-4.328 0.147,-5.021 0.134,-5.403 0.072,-5.655 -0.036,-5.769 -0.111,-5.849 -0.303,-5.954 -0.789,-6.005 l -0.069,-0.007 -0.008,-0.069 c -0.015,-0.122 -0.026,-0.223 -0.033,-0.302 l -0.008,-0.095 5.591,0 0.021,0.056 c 0.108,0.281 0.207,0.653 0.293,1.104 0.093,0.491 0.14,0.913 0.14,1.255 l 0,0.051 -0.043,0.025 C 5.03,-3.95 4.921,-3.932 4.752,-3.932 l -0.069,0 -0.016,-0.067 C 4.508,-4.641 4.296,-5.103 4.039,-5.368 3.722,-5.684 3.24,-5.844 2.605,-5.844 c -0.444,0 -0.758,0.084 -0.933,0.249 -0.173,0.163 -0.261,0.488 -0.261,0.967 l -0.01,1.524 C 2.253,-3.118 2.904,-3.147 3.34,-3.191 3.341,-3.42 3.345,-3.559 3.352,-3.615 l 0.009,-0.075 0.077,0 c 0.127,0 0.226,0.011 0.304,0.036 l 0.039,0.012 0.016,0.038 c 0.131,0.321 0.205,0.686 0.22,1.087 L 4.02,-2.423 3.926,-2.427 C 3.063,-2.461 2.213,-2.479 1.4,-2.48 1.401,-1.746 1.415,-0.9 1.441,0.101 l 0.258,0 c 0.808,0 1.352,-0.036 1.616,-0.105 0.301,-0.084 0.491,-0.268 0.582,-0.561 0.055,-0.176 0.098,-0.425 0.126,-0.739 l 0.007,-0.08 0.08,0 c 0.228,0 0.297,0.022 0.334,0.044 l 0.031,0.019 0.009,0.037 c 0.08,0.347 0.12,0.814 0.12,1.386 0,0.199 -0.007,0.385 -0.022,0.552 l -0.007,0.08 -5.515,0 -0.011,-0.075 C -0.966,0.556 -0.974,0.454 -0.974,0.347 l 0,-0.076 0.076,-0.011 C -0.246,0.172 -0.055,0.059 0,0"
           id="path3738"
           style="fill:#19255f;fill-opacity:1;fill-rule:nonzero;stroke:none" />
      </g>
      <g
         transform="translate(1149.6729,467.1112)"
         id="g3740">
        <path
           d="M 0,0 C 0,0.507 0.007,1.081 0.022,1.706 0.04,2.356 0.05,2.782 0.053,2.977 0.802,2.966 1.356,2.801 1.703,2.487 1.977,2.239 2.111,1.904 2.111,1.462 2.111,0.495 1.42,-0.071 0,-0.263 L 0,0 z M -1.399,2.834 C -1.332,2.762 -1.248,2.557 -1.231,1.984 -1.217,1.46 -1.21,0.811 -1.21,0 c 0,-0.745 -0.014,-1.469 -0.043,-2.154 -0.013,-0.382 -0.076,-0.634 -0.184,-0.749 -0.075,-0.079 -0.266,-0.185 -0.752,-0.235 l -0.069,-0.007 -0.008,-0.07 c -0.015,-0.122 -0.026,-0.223 -0.032,-0.301 l -0.008,-0.095 3.491,0 0.011,0.075 c 0.015,0.106 0.022,0.208 0.022,0.311 l 0,0.077 -0.077,0.01 C 0.703,-3.084 0.402,-2.982 0.248,-2.836 0.098,-2.693 0.018,-2.417 0.011,-2.017 0.005,-1.638 0,-1.266 0,-0.9 c 0.292,0.034 0.578,0.081 0.853,0.139 0.48,-0.864 0.922,-1.57 1.313,-2.1 0.422,-0.571 0.9,-0.898 1.313,-0.898 0.572,0 0.832,0.067 1.061,0.126 0.081,0.021 0.158,0.041 0.244,0.056 0.63,0.105 0.844,0.089 1.126,0.081 0.092,-0.002 0.189,-0.004 0.302,-0.004 0.281,0 0.411,-0.014 0.646,-0.039 0.172,-0.019 0.399,-0.043 0.779,-0.072 l 0.082,-0.006 0.011,0.081 c 0.015,0.106 0.023,0.208 0.023,0.311 l 0,0.078 -0.078,0.009 c -0.51,0.054 -0.847,0.161 -0.999,0.316 -0.151,0.155 -0.238,0.459 -0.258,0.903 -0.021,0.533 -0.031,1.772 -0.032,3.785 0.446,-0.529 1.062,-1.283 1.873,-2.294 1.444,-1.79 2.304,-2.908 2.557,-3.323 l 0.026,-0.043 0.051,0.002 c 0.306,0.007 0.521,0.062 0.659,0.166 l 0.036,0.028 -0.002,0.045 c -0.028,0.807 -0.039,1.992 -0.032,3.52 0.007,0.795 0.025,1.515 0.053,2.142 0.026,0.508 0.106,0.713 0.169,0.796 0.087,0.114 0.297,0.19 0.607,0.222 l 0.068,0.007 0.01,0.067 c 0.015,0.107 0.023,0.209 0.023,0.312 l 0,0.087 -2.962,0 -0.01,-0.075 C 9.497,3.423 9.489,3.318 9.489,3.214 l 0,-0.078 0.078,-0.009 C 10.061,3.072 10.39,2.978 10.544,2.85 10.716,2.696 10.811,2.39 10.824,1.941 10.851,1.15 10.866,-0.069 10.867,-1.686 10.188,-0.891 9.633,-0.218 9.175,0.365 7.646,2.304 6.814,3.379 6.704,3.559 L 6.678,3.6 4.557,3.6 4.547,3.526 C 4.532,3.423 4.524,3.321 4.524,3.214 l 0,-0.077 0.077,-0.01 C 5.287,3.039 5.477,2.93 5.53,2.873 5.581,2.816 5.669,2.624 5.677,1.973 5.684,1.682 5.681,1.056 5.667,0.001 5.66,-0.658 5.642,-1.364 5.614,-2.1 5.596,-2.579 5.511,-2.777 5.439,-2.863 5.333,-3.006 5.091,-3.098 4.722,-3.138 4.72,-3.138 4.646,-3.146 4.604,-3.139 4.281,-3.085 4.021,-2.98 3.835,-2.827 3.377,-2.445 2.765,-1.622 2.013,-0.38 2.924,0.062 3.386,0.728 3.386,1.602 3.386,2.235 3.128,2.73 2.621,3.073 2.075,3.437 1.124,3.622 -0.204,3.622 -0.875,3.622 -1.571,3.6 -2.27,3.558 L -2.341,3.554 -2.352,3.483 c -0.014,-0.102 -0.021,-0.2 -0.021,-0.3 l 0,-0.077 0.075,-0.01 c 0.619,-0.085 0.83,-0.189 0.899,-0.262"
           id="path3742"
           style="fill:#19255f;fill-opacity:1;fill-rule:nonzero;stroke:none" />
      </g>
      <g
         transform="translate(1164.4357,466.8998)"
         id="g3744">
        <path
           d="M 0,0 C 0.238,0.655 0.475,1.279 0.704,1.855 0.769,2.019 0.815,2.133 0.849,2.213 0.903,2.093 0.954,1.973 1.001,1.855 1.353,0.984 1.587,0.394 1.737,-0.002 1.786,-0.129 1.83,-0.24 1.869,-0.334 1.551,-0.34 1.214,-0.343 0.858,-0.343 0.503,-0.343 0.176,-0.34 -0.125,-0.334 -0.068,-0.191 -0.027,-0.08 0,0 m -2.713,-2.936 -0.008,-0.067 c -0.014,-0.122 -0.025,-0.222 -0.032,-0.302 l -0.009,-0.095 3.109,0 0.01,0.077 c 0.015,0.123 0.023,0.225 0.023,0.31 l 0,0.078 -0.078,0.008 c -0.678,0.072 -1.022,0.285 -1.022,0.629 0,0.129 0.031,0.297 0.091,0.497 0.08,0.253 0.175,0.531 0.289,0.848 0.374,0.013 0.784,0.02 1.219,0.02 0.436,0 0.849,-0.007 1.23,-0.02 l 0.376,-1.034 c 0.081,-0.217 0.122,-0.39 0.122,-0.514 0,-0.238 -0.246,-0.381 -0.732,-0.426 L 1.807,-2.933 1.797,-3.001 C 1.781,-3.107 1.774,-3.208 1.774,-3.312 l 0,-0.088 7.096,0 0.017,0.065 c 0.023,0.087 0.034,0.195 0.034,0.322 l 0,0.077 -0.077,0.009 c -0.553,0.067 -0.747,0.174 -0.813,0.253 -0.066,0.079 -0.147,0.296 -0.155,0.879 -0.007,0.394 -0.011,1.03 -0.011,1.943 0,0.645 0.01,1.637 0.03,3.029 C 8.327,3.168 8.648,3.144 8.847,3.106 9.226,3.019 9.491,2.85 9.634,2.604 9.722,2.448 9.79,2.224 9.838,1.933 9.873,1.772 9.901,1.54 9.922,1.242 l 0.005,-0.082 0.082,0 c 0.168,0 0.278,0.017 0.349,0.052 l 0.04,0.02 0.007,0.044 c 0.129,0.823 0.158,1.649 0.087,2.456 l -0.008,0.08 -6.335,0 L 4.136,3.74 C 4,2.994 3.96,2.168 4.017,1.284 L 4.02,1.234 4.065,1.212 C 4.136,1.177 4.247,1.16 4.416,1.16 l 0.074,0 0.012,0.073 C 4.606,1.869 4.719,2.306 4.836,2.532 4.982,2.816 5.244,3 5.635,3.095 5.845,3.14 6.185,3.168 6.645,3.177 6.651,2.656 6.654,1.614 6.654,0.148 6.654,-0.567 6.643,-1.259 6.622,-1.91 6.609,-2.292 6.554,-2.563 6.424,-2.676 6.172,-2.894 5.65,-2.926 5.65,-2.926 l 0,0 C 5.607,-2.928 5.565,-2.929 5.523,-2.929 l 0,0 c -0.671,0 -1.149,0.169 -1.277,0.291 C 4.101,-2.512 3.94,-2.236 3.768,-1.817 3.397,-0.899 3.139,-0.246 2.979,0.179 2.301,1.924 1.878,3.169 1.722,3.882 L 1.707,3.951 1.436,3.949 C 1.181,3.89 0.917,3.818 0.65,3.733 L 0.607,3.719 0.594,3.676 C 0.271,2.653 -0.149,1.437 -0.655,0.06 c -0.171,-0.462 -0.406,-1.081 -0.704,-1.857 -0.159,-0.42 -0.322,-0.705 -0.484,-0.846 -0.16,-0.141 -0.43,-0.237 -0.802,-0.284 l -0.068,-0.009 z"
           id="path3746"
           style="fill:#19255f;fill-opacity:1;fill-rule:nonzero;stroke:none" />
      </g>
      <g
         transform="translate(1176.0361,469.9776)"
         id="g3748">
        <path
           d="M 0,0 C 0.068,-0.072 0.151,-0.278 0.169,-0.85 0.183,-1.386 0.19,-2.065 0.19,-2.866 0.19,-3.594 0.176,-4.319 0.148,-5.02 0.134,-5.402 0.072,-5.654 -0.037,-5.769 -0.112,-5.849 -0.303,-5.954 -0.789,-6.005 l -0.069,-0.007 -0.008,-0.069 c -0.015,-0.122 -0.025,-0.222 -0.033,-0.301 l -0.009,-0.096 3.483,0 0.01,0.075 c 0.015,0.105 0.022,0.207 0.022,0.312 l 0,0.077 -0.077,0.009 C 1.884,-5.928 1.662,-5.823 1.589,-5.747 1.518,-5.674 1.43,-5.466 1.421,-4.893 1.407,-4.139 1.4,-3.457 1.4,-2.866 c 0,0.565 0.015,1.282 0.043,2.132 0.014,0.378 0.072,0.633 0.173,0.76 0.097,0.122 0.328,0.202 0.666,0.234 L 2.35,0.267 2.36,0.334 c 0.015,0.101 0.023,0.203 0.023,0.313 l 0,0.087 -3.323,0 L -0.951,0.66 C -0.967,0.557 -0.974,0.454 -0.974,0.347 l 0,-0.076 0.075,-0.01 C -0.279,0.177 -0.068,0.073 0,0"
           id="path3750"
           style="fill:#19255f;fill-opacity:1;fill-rule:nonzero;stroke:none" />
      </g>
      <g
         transform="translate(1180.9666,469.4222)"
         id="g3752">
        <path
           d="m 0,0 c 0.356,0.52 0.864,0.773 1.551,0.773 0.699,0 1.223,-0.301 1.602,-0.919 0.346,-0.567 0.521,-1.324 0.521,-2.25 0,-1.042 -0.22,-1.847 -0.654,-2.391 -0.329,-0.41 -0.82,-0.619 -1.458,-0.619 -0.605,0 -1.082,0.231 -1.46,0.706 -0.455,0.551 -0.685,1.372 -0.685,2.443 0,0.931 0.196,1.69 0.583,2.257 m -0.45,-5.534 c 0.538,-0.349 1.218,-0.526 2.022,-0.526 0.996,0 1.828,0.345 2.472,1.025 0.643,0.68 0.962,1.622 0.947,2.799 -0.014,1.463 -0.524,2.519 -1.514,3.138 -0.56,0.35 -1.226,0.527 -1.98,0.527 -0.975,0 -1.79,-0.351 -2.423,-1.043 -0.668,-0.726 -0.999,-1.666 -0.985,-2.794 0.015,-1.462 0.506,-2.514 1.461,-3.126"
           id="path3754"
           style="fill:#19255f;fill-opacity:1;fill-rule:nonzero;stroke:none" />
      </g>
      <g
         transform="translate(1194.3188,470.2452)"
         id="g3756">
        <path
           d="m 0,0 0.009,0.068 c 0.015,0.109 0.023,0.211 0.023,0.311 l 0,0.087 -2.961,0 L -2.94,0.392 C -2.955,0.291 -2.962,0.189 -2.962,0.08 l 0,-0.078 0.078,-0.009 c 0.493,-0.055 0.822,-0.148 0.977,-0.277 0.172,-0.154 0.267,-0.46 0.28,-0.909 0.027,-0.797 0.041,-2.016 0.043,-3.627 -0.677,0.792 -1.231,1.464 -1.692,2.051 -1.527,1.936 -2.359,3.01 -2.472,3.194 l -0.025,0.041 -2.121,0 -0.011,-0.074 C -7.92,0.29 -7.928,0.188 -7.928,0.08 l 0,-0.077 0.077,-0.01 c 0.687,-0.088 0.877,-0.197 0.929,-0.254 0.051,-0.057 0.139,-0.249 0.148,-0.899 0.007,-0.299 0.003,-0.963 -0.01,-1.973 C -6.792,-3.795 -6.81,-4.501 -6.838,-5.234 -6.854,-5.712 -6.94,-5.911 -7.013,-5.998 -7.119,-6.14 -7.361,-6.232 -7.732,-6.272 L -7.8,-6.279 -7.809,-6.347 c -0.015,-0.107 -0.022,-0.209 -0.022,-0.311 l 0,-0.087 3.099,0 0.011,0.075 c 0.015,0.104 0.023,0.206 0.023,0.311 l 0,0.079 -0.078,0.008 c -0.511,0.054 -0.847,0.16 -0.999,0.316 -0.152,0.156 -0.239,0.459 -0.258,0.903 -0.021,0.539 -0.032,1.811 -0.033,3.785 0.449,-0.533 1.078,-1.303 1.873,-2.295 1.444,-1.789 2.304,-2.907 2.557,-3.322 l 0.026,-0.043 0.051,0.002 c 0.305,0.007 0.521,0.062 0.659,0.166 l 0.036,0.028 -0.002,0.045 c -0.028,0.805 -0.039,1.99 -0.032,3.521 0.007,0.779 0.025,1.5 0.054,2.142 0.025,0.506 0.105,0.712 0.169,0.795 0.087,0.114 0.297,0.19 0.607,0.222 L 0,0 z"
           id="path3758"
           style="fill:#19255f;fill-opacity:1;fill-rule:nonzero;stroke:none" />
      </g>
      <g
         transform="translate(1197.488,466.5573)"
         id="g3760">
        <path
           d="m 0,0 c -0.355,0 -0.683,0.003 -0.983,0.009 0.056,0.139 0.097,0.25 0.125,0.334 0.235,0.646 0.472,1.27 0.704,1.855 0.065,0.164 0.112,0.278 0.144,0.357 C 0.044,2.437 0.095,2.318 0.143,2.197 0.462,1.411 0.716,0.77 0.88,0.341 0.928,0.214 0.973,0.103 1.011,0.009 0.693,0.003 0.356,0 0,0 m 10.337,-0.566 c -0.065,0.037 -0.173,0.054 -0.343,0.054 l -0.068,0 L 9.91,-0.578 C 9.75,-1.214 9.53,-1.675 9.258,-1.947 8.94,-2.264 8.453,-2.424 7.809,-2.424 c -0.46,0 -0.784,0.086 -0.963,0.255 -0.177,0.167 -0.271,0.501 -0.277,0.993 l 0,1.73 c 0,0.557 0.014,1.255 0.043,2.133 0.016,0.464 0.113,0.65 0.191,0.724 0.082,0.077 0.307,0.186 0.919,0.27 L 7.787,3.69 7.796,3.756 c 0.015,0.103 0.022,0.208 0.022,0.311 l 0,0.087 -3.591,0 -0.01,-0.075 C 4.202,3.971 4.194,3.869 4.194,3.768 l 0,-0.077 0.076,-0.01 C 4.889,3.597 5.1,3.493 5.168,3.42 5.236,3.349 5.32,3.143 5.338,2.57 5.351,2.031 5.358,1.352 5.358,0.554 5.358,-0.179 5.344,-0.904 5.316,-1.6 5.302,-1.982 5.24,-2.234 5.131,-2.349 5.056,-2.428 4.865,-2.534 4.384,-2.584 4.284,-2.589 4.223,-2.591 4.187,-2.591 L 4.144,-2.585 C 3.794,-2.537 3.541,-2.441 3.388,-2.295 3.243,-2.17 3.082,-1.894 2.911,-1.474 2.539,-0.556 2.281,0.096 2.121,0.522 1.442,2.267 1.02,3.512 0.865,4.225 L 0.85,4.294 0.578,4.291 C 0.325,4.233 0.061,4.161 -0.208,4.076 L -0.251,4.062 -0.265,4.019 c -0.32,-1.018 -0.74,-2.234 -1.248,-3.617 -0.179,-0.485 -0.416,-1.11 -0.704,-1.856 -0.159,-0.421 -0.321,-0.705 -0.484,-0.847 -0.16,-0.14 -0.429,-0.236 -0.802,-0.284 l -0.068,-0.008 -0.007,-0.068 c -0.015,-0.121 -0.026,-0.222 -0.033,-0.301 l -0.009,-0.095 3.111,0 0.009,0.076 c 0.014,0.117 0.021,0.221 0.021,0.31 l 0,0.078 -0.078,0.009 c -0.678,0.072 -1.022,0.284 -1.022,0.629 0,0.125 0.031,0.293 0.092,0.497 0.079,0.248 0.173,0.526 0.289,0.848 0.374,0.013 0.784,0.02 1.22,0.02 0.435,0 0.848,-0.007 1.229,-0.02 L 1.627,-1.644 C 1.708,-1.861 1.75,-2.034 1.75,-2.158 1.75,-2.396 1.503,-2.539 1.017,-2.584 L 0.948,-2.591 0.938,-2.658 C 0.924,-2.76 0.916,-2.862 0.916,-2.97 l 0,-0.087 9.011,0 0.021,0.056 c 0.108,0.281 0.206,0.653 0.292,1.104 0.093,0.486 0.141,0.909 0.141,1.255 l 0,0.05 -0.044,0.026 z"
           id="path3762"
           style="fill:#19255f;fill-opacity:1;fill-rule:nonzero;stroke:none" />
      </g>
      <g
         transform="translate(1099.3417,471.0266)"
         id="g3764">
        <path
           d="m 0,0 c 1.168,0.995 1.348,1.118 1.373,1.127 l 0,-0.002 0,0.003 0.002,0 0,0 10e-4,0 0,0 0,-0.003 c 0,0 0.001,10e-4 0.001,0.002 0.025,-0.009 0.206,-0.132 1.375,-1.125 1.479,-1.254 1.776,-2.02 1.777,-3.187 0.002,-1.698 -1.845,-2.391 -3.148,-2.393 -1.303,0 -3.151,0.689 -3.153,2.388 0,1.167 0.296,1.933 1.772,3.19 m 1.381,-7.305 0,0 10e-4,0 0.001,0 10e-4,0 c 2.582,0.004 4.809,1.694 4.807,4.048 C 6.189,-0.903 4.157,0.703 2.874,1.849 2.082,2.556 1.707,3.576 1.53,4.092 1.493,4.199 1.382,4.202 1.374,4.202 l -0.002,0 -0.001,0 C 1.364,4.202 1.252,4.199 1.216,4.092 1.039,3.576 0.666,2.555 -0.125,1.847 -1.406,0.698 -3.436,-0.911 -3.434,-3.265 c 0.002,-2.354 2.232,-4.04 4.815,-4.04"
           id="path3766"
           style="fill:#19255f;fill-opacity:1;fill-rule:nonzero;stroke:none" />
      </g>
      <g
         transform="translate(1103.4802,448.5007)"
         id="g3768">
        <path
           d="m 0,0 c 0.002,-2.694 -2.159,-3.03 -2.75,-3.033 -0.592,0.003 -2.753,0.335 -2.755,3.028 -0.002,2.172 1.996,4.01 2.748,5.411 C -2.004,4.006 -0.002,2.171 0,0 m 14.314,11.22 c -0.076,0.171 -0.178,0.215 -0.418,0.167 C 13.573,11.322 9.515,9.505 9.518,4.969 9.519,3.64 9.815,2.783 9.817,1.289 9.819,-1.223 8.084,-2.332 7.013,-2.333 5.203,-2.335 4.34,-0.563 4.339,0.644 4.338,1.314 4.436,2.261 5.383,3.107 5.82,3.497 6.28,4.068 6.28,4.068 c 0,0 -3.977,2.428 -5.549,5.412 0,0 2.308,-0.3 4.831,-0.088 0,0 0.105,-0.024 0.154,0.105 0.05,0.129 -0.086,0.221 -0.086,0.221 0,0 -1.904,2.522 -2.62,4.787 0,0 0.713,1.153 0.269,2.448 0,0 0,0.064 -0.099,0.113 -0.099,0.049 -0.152,-0.064 -0.197,-0.113 -0.044,-0.05 -1.294,-2.911 -5.747,-2.921 -4.454,0.003 -5.708,2.862 -5.753,2.911 -0.044,0.049 -0.098,0.162 -0.197,0.113 -0.098,-0.049 -0.098,-0.113 -0.098,-0.113 -0.442,-1.295 0.273,-2.448 0.273,-2.448 -0.712,-2.266 -2.612,-4.791 -2.612,-4.791 0,0 -0.136,-0.092 -0.087,-0.221 0.05,-0.129 0.155,-0.104 0.155,-0.104 2.523,-0.209 4.832,0.096 4.832,0.096 -1.569,-2.987 -5.542,-5.422 -5.542,-5.422 0,0 0.462,-0.57 0.899,-0.959 0.949,-0.844 1.048,-1.792 1.049,-2.462 0.001,-1.207 -0.86,-2.98 -2.669,-2.982 -1.071,-10e-4 -2.808,1.106 -2.81,3.618 -10e-4,1.494 0.293,2.352 0.292,3.681 -0.003,4.536 -4.066,6.346 -4.388,6.41 -0.24,0.048 -0.342,0.004 -0.418,-0.167 -0.099,-0.222 0.148,-0.374 0.148,-0.374 0,0 3.054,-1.803 3.058,-5.784 0.002,-2.537 -0.306,-2.13 -0.304,-4.494 0.002,-2.364 1.555,-4.985 4.535,-4.982 3.102,0.002 4.441,2.97 4.44,5.113 -0.002,1.371 -0.606,2.589 -1.493,3.36 0,0 3.298,1.767 5.203,5.863 l -0.802,1.322 c 0,0 -1.735,-0.383 -3.293,-0.143 0,0 0.571,1.913 0.737,2.401 0,0 1.694,-1.076 4.064,-1.135 0,0 0.186,-0.919 0.188,-3.046 0.003,-3.756 -3.905,-5.483 -3.902,-9.453 0.003,-3.938 3.292,-4.873 4.495,-4.886 l 10e-4,-10e-4 c 0.004,0 0.009,0 0.014,0 0.005,0 0.01,0 0.015,0 l 0,10e-4 c 1.204,0.015 4.491,0.955 4.488,4.894 -0.004,3.97 -3.915,5.69 -3.918,9.446 -0.002,2.127 0.183,3.046 0.183,3.046 2.37,0.063 4.062,1.142 4.062,1.142 0.167,-0.487 0.741,-2.4 0.741,-2.4 -1.557,-0.243 -3.293,0.137 -3.293,0.137 l -0.8,-1.323 C 0.641,5.804 3.942,4.041 3.942,4.041 3.056,3.27 2.454,2.051 2.455,0.679 c 0.002,-2.142 1.346,-5.108 4.449,-5.105 2.979,0.002 4.528,2.626 4.526,4.989 -0.002,2.364 -0.31,1.958 -0.312,4.494 -0.003,3.982 3.049,5.789 3.049,5.789 0,0 0.246,0.152 0.147,0.374"
           id="path3770"
           style="fill:#19255f;fill-opacity:1;fill-rule:nonzero;stroke:none" />
      </g>
      <g
         transform="translate(1115.6783,446.3595)"
         id="g3772">
        <path
           d="m 0,0 0,-0.159 -0.449,0 0,-1.174 -0.183,0 0,1.174 -0.449,0 0,0.159 L 0,0 z"
           id="path3774"
           style="fill:#19255f;fill-opacity:1;fill-rule:nonzero;stroke:none" />
      </g>
      <g
         transform="translate(1115.8398,446.3595)"
         id="g3776">
        <path
           d="M 0,0 0.259,0 0.642,-1.127 1.023,0 1.28,0 l 0,-1.333 -0.173,0 0,0.787 c 0,0.027 0.001,0.072 0.002,0.135 0.001,0.063 0.002,0.13 0.002,0.202 l -0.381,-1.124 -0.179,0 -0.384,1.124 0,-0.04 c 0,-0.033 0.001,-0.083 0.003,-0.15 0.002,-0.067 0.002,-0.116 0.002,-0.147 l 0,-0.787 L 0,-1.333 0,0 z"
           id="path3778"
           style="fill:#19255f;fill-opacity:1;fill-rule:nonzero;stroke:none" />
      </g>
      <text
         x="1122.5302"
         y="-444.9631"
         transform="scale(1,-1)"
         id="text6362"
         xml:space="preserve"
         style="font-size:10.39400768px;font-style:normal;font-variant:normal;font-weight:normal;font-stretch:normal;text-align:start;line-height:125%;letter-spacing:0px;word-spacing:0px;writing-mode:lr-tb;text-anchor:start;fill:#00adef;fill-opacity:1;stroke:none;font-family:Nimbus Sans L;-inkscape-font-specification:Nimbus Sans L"><tspan
           x="1122.5302"
           y="-444.9631"
           id="tspan6364"
           style="font-style:normal;font-variant:normal;font-weight:500;font-stretch:normal;font-family:Sovereign-Medium;-inkscape-font-specification:Sovereign-Medium Medium">MERILING</tspan></text>
    </g>
  </g>
</svg>
