<svg width="44.41702940873802" height="41.79801046848297" xmlns="http://www.w3.org/2000/svg">
 <g>
  <title>Layer 1</title>
  <g id="svg_4">
   <path fill="#1D2362" d="m22.215,15.586l0,0l0,0h0.00301h0.001c3.34,-0.002 6.221,-2.185 6.221,-5.229c0,-3.04501 -2.627,-5.123 -4.285,-6.607c-1.02299,-0.916 -1.506,-2.235 -1.73499,-2.903c-0.048,-0.138 -0.192,-0.141 -0.202,-0.141h-0.002h-0.00101c-0.00999,0 -0.154,0.003 -0.202,0.141c-0.228,0.668 -0.712,1.987 -1.735,2.903c-1.659,1.484 -4.285,3.562 -4.285,6.607c0,3.044 2.882,5.227 6.222,5.229m-1.778,-9.448c1.511,-1.285 1.744,-1.444 1.777,-1.456c0,0.001 0.001,0.003 0.001,0.003v-0.004h0.00101h0.001h0.001v0.004c0,0 0.001,-0.002 0.001,-0.003c0.033,0.012 0.26601,0.171 1.777,1.456c1.911,1.624 2.29501,2.615 2.29501,4.123c0,2.197 -2.389,3.091 -4.075,3.092c-1.68501,-0.001 -4.07401,-0.896 -4.07401,-3.092c0,-1.508 0.384,-2.499 2.295,-4.123" id="svg_2"/>
   <path fill="#1D2362" d="m44.289,20.78c-0.099,-0.223 -0.231,-0.279 -0.541,-0.217c-0.417,0.083 -5.669,2.42899 -5.669,8.295c0,1.71899 0.383,2.827 0.383,4.75999c0,3.248 -2.245,4.681 -3.63,4.681c-2.341,0 -3.455,-2.29199 -3.455,-3.85301c0,-0.866 0.127,-2.09201 1.353,-3.18402c0.56499,-0.504 1.16199,-1.24199 1.16199,-1.24199s-5.141,-3.144 -7.172,-7.005c0,0 2.98499,0.39101 6.24899,0.119c0,0 0.13499,0.03201 0.19901,-0.13499c0.064,-0.168 -0.111,-0.28699 -0.111,-0.28699s-2.46,-3.264 -3.384,-6.193c0,0 0.924,-1.491 0.35001,-3.166c0,0 0,-0.08199 -0.127,-0.146c-0.12701,-0.062 -0.19701,0.083 -0.255,0.146c-0.057,0.063 -1.676,3.762 -7.436,3.77c-5.76,-0.008 -7.37901,-3.706 -7.436,-3.77c-0.057,-0.063 -0.127,-0.209 -0.255,-0.146c-0.127,0.064 -0.127,0.146 -0.127,0.146c-0.573,1.675 0.35,3.166 0.35,3.166c-0.923,2.929 -3.383,6.193 -3.383,6.193s-0.17599,0.119 -0.112,0.28699c0.064,0.167 0.2,0.13499 0.2,0.13499c3.263,0.272 6.248,-0.119 6.248,-0.119c-2.03101,3.86104 -7.172,7.005 -7.172,7.005s0.597,0.73799 1.162,1.24199c1.226,1.09201 1.353,2.31802 1.353,3.18402c0,1.56099 -1.114,3.85301 -3.45399,3.85301c-1.386,0 -3.63,-1.433 -3.63,-4.681c0,-1.933 0.382,-3.041 0.382,-4.75999c0,-5.866 -5.252,-8.212 -5.668,-8.295c-0.311,-0.062 -0.443,-0.006 -0.542,0.217c-0.127,0.286 0.19099,0.483 0.19099,0.483s3.94901,2.334 3.94901,7.483c0,3.28 -0.398,2.755 -0.398,5.811c0,3.05698 2.006,6.44899 5.859,6.44899c4.012,0 5.748,-3.83699 5.748,-6.608c0,-1.774 -0.781,-3.349 -1.927,-4.34599c0,0 4.26701,-2.283 6.735,-7.577l-1.035,-1.712c0,0 -2.245,0.494 -4.259,0.182c0,0 0.74,-2.474 0.955,-3.105c0,0 2.189,1.39301 5.254,1.47301c0,0 0.24,1.188 0.24,3.93999c0,4.856 -5.056,7.08601 -5.056,12.22001c0,5.09399 4.25201,6.30499 5.80801,6.32399l0.001,0.00101c0.006,0 0.013,0 0.019,-0.00101c0.006,0.00101 0.013,0.00101 0.019,0.00101l0.00101,-0.00101c1.556,-0.019 5.808,-1.23 5.808,-6.32399c0,-5.134 -5.057,-7.36401 -5.057,-12.22001c0,-2.752 0.241,-3.93999 0.241,-3.93999c3.064,-0.08 5.254,-1.47301 5.254,-1.47301c0.215,0.631 0.955,3.105 0.955,3.105c-2.014,0.312 -4.258,-0.182 -4.258,-0.182l-1.036,1.712c2.46799,5.294 6.73499,7.577 6.73499,7.577c-1.146,0.99699 -1.92599,2.57199 -1.92599,4.34599c0,2.77101 1.735,6.608 5.74699,6.608c3.853,0 5.85899,-3.39201 5.85899,-6.44899c0,-3.056 -0.39799,-2.53102 -0.39799,-5.811c0,-5.149 3.94901,-7.483 3.94901,-7.483s0.319,-0.197 0.19099,-0.483m-18.52399,14.494c0,3.48399 -2.79501,3.916 -3.56001,3.92c-0.765,-0.004 -3.56001,-0.436 -3.56001,-3.92c0,-2.808 2.58701,-5.183 3.56001,-6.994c0.973,1.811 3.56001,4.186 3.56001,6.994" id="svg_3"/>
  </g>
 </g>
</svg>

