<?xml version="1.0" encoding="UTF-8" standalone="no"?>
<!-- Created with Inkscape (http://www.inkscape.org/) -->

<svg
   xmlns:dc="http://purl.org/dc/elements/1.1/"
   xmlns:cc="http://creativecommons.org/ns#"
   xmlns:rdf="http://www.w3.org/1999/02/22-rdf-syntax-ns#"
   xmlns:svg="http://www.w3.org/2000/svg"
   xmlns="http://www.w3.org/2000/svg"
   width="744.09448819"
   height="1052.3622047"
   id="svg3077"
   version="1.1">

  <g id="layer1">
    <path
       style="fill:#d89b50;fill-opacity:1;fill-rule:nonzero;stroke:none"
       d="m 43.7334,3.4464283 c -3.184577,5.99854 -9.737521,7.8049097 -11.528846,13.6249977 -2.203121,6.931945 4.692985,13.255682 11.528846,13.200778 6.828997,0.0549 13.722601,-6.268833 11.553801,-13.200778 C 53.461551,11.251338 46.931707,9.4449683 43.7334,3.4464283 z m 0,4.09249 c 1.880549,2.9924047 6.911518,5.3734317 8.222411,8.8462677 1.76387,4.838637 -1.01593,10.368475 -8.222411,10.368475 -7.179027,0 -9.98628,-5.529838 -8.222413,-10.368475 C 36.815018,12.91235 41.85285,10.531323 43.7334,7.5389183 z M 28.848213,26.079897 c -0.507884,1.427568 -0.542202,3.281898 0,4.853594 0.233351,0.569655 0.448521,1.116 0.661286,1.671932 -0.109814,1.331481 -1.288855,3.227134 -1.522207,3.755609 -0.260805,0.528474 -0.817839,1.540856 -1.085508,2.021291 -0.473571,0.926544 -1.557107,2.644443 -1.859089,3.269001 -0.308853,0.590249 -1.517679,2.586363 -2.732486,3.643315 0.06177,0.157855 0.131004,0.348094 0.199634,0.499085 3.006136,-0.178449 6.270007,-0.953167 9.00847,-1.584593 1.153037,-0.164718 1.850848,-0.274476 2.832303,-0.411744 0.603972,0 1.741724,-0.17468 2.345696,-0.17468 -0.754963,1.914867 -2.742304,3.210166 -4.005151,4.678915 -2.155081,2.553155 -4.241293,4.402246 -6.513049,6.687729 -1.372661,1.338348 -2.481511,2.948781 -3.867903,4.342032 0.171585,1.832506 1.296881,1.519584 2.195971,2.507899 1.098129,1.173626 2.904119,4.271825 2.320741,6.824977 -0.288263,1.400115 -1.072288,3.323162 -1.971382,4.167353 -2.717873,2.580602 -8.965846,0.642856 -10.530679,-1.484776 -1.043226,-1.420701 -1.906442,-3.57942 -2.345696,-5.51488 -0.926544,-4.344477 1.221675,-9.183226 0,-13.362981 C 10.881035,48.556882 8.2408004,44.156384 5.2415274,42.063069 4.3012524,41.465961 3.6059444,41.118626 2.3842704,40.528385 1.5606774,40.240122 0.89953043,40.2283 0.62499843,40.303797 c 0.37748297,1.489339 2.14093597,2.275688 3.15670797,3.31891 0.926544,0.899094 3.591434,4.444094 4.366987,6.33837 0.899094,2.175672 1.685751,6.757792 0.985691,10.031593 -0.404933,1.887413 -1.354482,5.346087 -0.661286,8.022779 0.899094,3.397342 2.6797506,7.020625 5.1779976,8.846265 1.393256,1.19422 2.409096,1.66623 4.179831,2.3457 7.32316,2.66297 12.616711,-4.76057 13.687386,-10.031594 0.864777,-4.234666 -2.225141,-7.163979 -3.343864,-10.019116 -0.04118,-0.102951 -0.100432,-0.212091 -0.162202,-0.349359 3.966997,-2.601191 7.149581,-6.602437 10.368474,-10.006639 1.132447,-1.180494 2.777344,-2.645019 3.244048,-3.605883 0.253946,-0.72751 -2.292597,-5.292649 -2.807349,-6.363324 -1.866818,0.398069 -3.6862,0.489066 -4.928457,0.736149 -1.022639,0.144131 -3.317568,0.212111 -4.017628,0.212111 0.754963,-1.255992 1.471632,-2.848929 1.821658,-4.516713 1.008909,0.425524 2.077919,1.239546 3.169185,1.671932 2.299213,0.926552 4.793452,1.333027 6.687728,2.520376 2.731604,10.741091 -4.003486,16.181213 -7.174335,23.531821 -3.067907,7.007447 -1.116093,13.023759 3.743131,16.544639 1.606017,1.17363 3.324852,1.77175 5.589744,1.77175 l 0.04991,0 c 2.251169,0 3.996207,-0.59812 5.602221,-1.77175 4.879816,-3.52088 6.771096,-9.537192 3.730656,-16.544639 -3.163992,-7.350608 -9.90032,-12.79073 -7.16186,-23.531821 1.887412,-1.187349 4.377288,-1.593824 6.66277,-2.520376 1.11872,-0.432386 2.15778,-1.246408 3.19414,-1.671932 0.34317,1.667784 1.05983,3.260721 1.82166,4.516713 -0.73437,0 -2.98938,-0.06798 -4.00515,-0.212111 -1.26971,-0.247083 -3.061639,-0.33808 -4.928457,-0.736149 -0.535338,1.070675 -3.087495,5.635814 -2.819826,6.363324 0.45984,0.960864 2.125328,2.425389 3.244047,3.605883 3.225766,3.404206 6.389006,7.405448 10.355996,10.006639 -0.0618,0.137268 -0.10854,0.246408 -0.14972,0.349359 -1.105,2.855137 -4.2074,5.78445 -3.35634,10.019116 1.05694,5.271024 6.40416,12.694564 13.69986,10.031594 1.7776,-0.67947 2.7741,-1.15148 4.16735,-2.3457 2.51198,-1.82563 4.30075,-5.448923 5.16552,-8.846265 0.68634,-2.676692 -0.25073,-6.135366 -0.64881,-8.022779 -0.72751,-3.273801 0.0991,-7.855921 0.99817,-10.031593 0.78242,-1.894272 3.42796,-5.439276 4.35451,-6.33837 1.0295,-1.043222 2.77361,-1.829571 3.14423,-3.31891 -0.25394,-0.0755 -0.92444,-0.06368 -1.73432,0.224588 -1.2148,0.590241 -1.95129,0.937576 -2.85725,1.534684 -3.01299,2.093315 -5.62017,6.493813 -6.72516,10.405906 -1.22167,4.179755 0.93341,9.018504 0,13.362981 -0.43925,1.93546 -1.3137,4.094179 -2.37065,5.51488 -1.55798,2.127632 -7.8153,4.065378 -10.50573,1.484776 -0.89222,-0.844191 -1.71119,-2.767238 -2.03376,-4.167353 -0.54907,-2.553152 1.26129,-5.651351 2.34569,-6.824977 0.90596,-0.988315 2.02689,-0.675393 2.17102,-2.507899 -1.33148,-1.393251 -2.4522,-3.003684 -3.818,-4.342032 -2.25803,-2.285483 -4.37169,-4.134574 -6.51305,-6.687729 -1.25598,-1.468749 -3.24893,-2.764048 -4.017623,-4.678915 0.610839,0 1.734863,0.17468 2.345693,0.17468 0.98833,0.137268 1.6724,0.247026 2.83231,0.411744 2.75218,0.631426 5.99547,1.406144 9.00847,1.584593 0.0549,-0.150991 0.1073,-0.34123 0.1622,-0.499085 -1.1599,-1.056952 -2.38059,-3.053066 -2.68258,-3.643315 -0.30199,-0.624558 -1.39425,-2.342457 -1.909,-3.269001 -0.23335,-0.480435 -0.76231,-1.492817 -1.02312,-2.021291 -0.28826,-0.528475 -1.41676,-2.424128 -1.54716,-3.755609 0.21962,-0.555928 0.42668,-1.102277 0.67376,-1.671932 0.52161,-1.571696 0.49416,-3.426022 0,-4.853594 -1.89427,1.406978 -2.82514,4.198971 -5.02827,5.702037 -2.14135,1.420709 -6.108292,2.258991 -9.869391,2.183493 -3.767958,-0.03434 -7.700586,-0.762784 -9.869391,-2.183493 -2.196258,-1.503066 -3.135247,-4.295059 -5.015796,-5.702037 z M 43.7334,51.009154 c 1.111856,3.294391 2.315539,6.129629 3.88038,8.971039 0.926544,1.736418 2.094832,3.303642 2.657623,5.527358 1.496808,5.98721 -2.474164,10.213943 -6.513049,10.181323 -4.035631,0.0686 -8.074133,-4.169059 -6.55048,-10.181323 0.562791,-2.223716 1.732325,-3.79094 2.645146,-5.527358 1.557977,-2.84141 2.782251,-5.676648 3.88038,-8.971039 z"
       id="path518" />
  </g>
</svg>
