<?xml version="1.0" encoding="UTF-8" standalone="no"?>
<!-- Created with Inkscape (http://www.inkscape.org/) -->

<svg
   xmlns:rdf="http://www.w3.org/1999/02/22-rdf-syntax-ns#"
   xmlns:svg="http://www.w3.org/2000/svg"
   xmlns="http://www.w3.org/2000/svg"
   width="100"
   height="100"
   id="svg3101"
   version="1.1"
   >
  <g id="layer1">
    <path
       style="fill:#a52a2a;fill-opacity:1;stroke:none;display:inline"
       d="m 39.401374,0.43921886 c -2.45474,0.552916 -5.906,0.440975 -8.69696,0.246049 -3.75476,0.36333904 -7.70674,-0.237082 -11.55977,-0.06561 -6.28942,-0.0067 -11.9661697,-0.390965 -18.23971971,0.171108 -0.35384,0.95705504 -0.1709,2.32487704 0.48273001,2.49443704 -0.42384001,1.98822 -0.0713,4.030931 0.10433,6.036431 -0.38602,0.637681 -0.10968,1.8962781 -0.25038,3.2273581 0.28233,3.722206 0.60878,8.068624 0.30046,11.285504 0.37067,1.873096 -0.64369001,3.264565 -0.16693,5.097347 0.16897,4.754617 -0.34357,9.81158 -0.34357,14.343397 0.28219,2.436814 0.0101,5.604378 -0.0571,8.170193 0.52725001,2.306714 0.41956001,5.546189 0.23371001,8.168879 0.34644,3.528367 -0.34012001,7.478479 -0.17664,11.099211 0.36856,7.10767 -0.21404001,11.64029 0,17.23471 -0.17732001,0.39131 0.52879,0.56028 0.96538,0.50317 3.18863,-0.16783 6.3395,0.0783 9.5232497,-0.14353 2.71341,-0.29005 5.28097,0.054 7.51295,0.054 3.0706,0.29287 7.23648,0 10.40083,0 3.62819,-0.0401 6.92961,-0.18038 10.35618,0 2.20894,-0.82798 4.27254,0.29115 6.34112,0 5.13053,0 11.76578,-0.0766 16.8565,0 4.81262,-0.74904 7.28525,0.37516 12.0651,0 3.16543,-0.0147 -2.46137,-0.33201 8.55656,0 -0.55416,-0.0214 3.49514,-0.22758 4.60667,0 2.35531,-0.0555 4.9965,0.42647 4.81609,0 0,-1.07573 0.15421,-1.69578 0,-2.7096 -0.56955,-10.85531 -0.23277,-12.8806 -0.42248,-23.556932 -0.0436,-3.449738 -0.17894,-7.113006 0.0167,-10.371032 -0.89804,-2.100289 0.2365,-3.86864 -0.0792,-5.835485 0.95577,-4.749908 0.22572,-9.520813 0.30882,-14.361133 -0.40699,-4.376704 0.37684,-8.840811 -0.0792,-13.409732 -0.0158,-2.990004 -0.50938,-6.233304 -0.16276,-9.1243681 -0.0516,0.08841 -0.20696,-2.052016 0.0245,-3.042824 0.0206,-0.0827 0.29679,-3.24442 0.0501,-5.18989904 -2.53201,-0.003 -6.30997,0.26746604 -8.60872,0.03925 -0.62686,0.06469 -3.61547,-0.433433 -5.04508,-0.310228 -3.99364,0.387252 -4.9203,0.60518404 -8.41966,0.472928 -1.90994,0.20283704 -7.2299,-0.275063 -10.36215,0.05331 -4.99241,-0.54878704 -4.07899,0.399431 -9.0588,-0.51660304 -2.59318,0.295929 -9.06219,0.01001 -11.79262,-0.06028 z M 23.238544,2.0590479 c 3.94939,0.317307 7.43165,0.660467 11.62239,0.20914 2.31478,0.543069 4.31717,-0.363061 6.58948,0.0082 2.33726,-0.08237 6.86967,0.305269 9.65638,-0.08047 5.0849,0.17609 8.71006,0.61266 13.89718,0.187099 3.14779,0.578162 6.44632,0.172239 9.71522,0.471594 2.89207,-0.565508 6.21313,-0.447798 8.93484,-0.410083 0.77778,0.150642 2.9753,-0.186265 4.29421,-0.159933 1.20148,0.162105 2.04422,0.04952 3.0536,0.196257 0.0851,2.173622 0.0164,3.799298 0.19316,5.901691 -0.37429,0.644096 -0.10562,1.9156901 -0.24204,3.2601631 0.40046,10.528471 0.13295,9.526128 0.13354,16.550993 0.16382,4.802455 -0.009,9.770184 0.15441,14.615375 -0.69054,5.593209 0.0295,11.069276 -0.32134,16.374653 0.33591,3.563868 -0.21693,7.316674 -0.0584,10.973836 0.021,0.33685 0.034,0.669 0.046,1.00061 -1.40697,-0.20209 -3.72228,-0.46664 -7.59523,-0.79556 -1.06268,-0.0671 -2.25182,-0.12916 -3.55974,-0.18044 -0.004,-0.005 -0.008,-0.008 -0.0125,-0.0123 -0.0641,-0.0694 -0.13143,-0.13627 -0.2045,-0.19685 -0.22208,-0.18544 -0.46506,-0.31495 -0.73031,-0.41829 -0.6591,-0.25728 -1.40345,-0.32704 -2.00731,-0.66433 -0.11775,-0.0279 -0.31684,-0.12475 -0.55503,-0.23375 -0.28165,-0.12892 -0.61947,-0.27714 -0.9348,-0.36088 -1.63341,-0.41034 -3.37707,-1.050993 -4.71154,-1.656725 -0.69644,-0.174351 -1.06501,-0.821139 -1.80283,-0.832477 -0.0924,-9e-4 -0.19098,0.0036 -0.2963,0.02455 -1.83013,-1.042916 -4.05513,-1.167305 -5.80493,-2.390783 -0.51515,-0.125324 -1.03388,-0.399011 -1.55243,-0.701247 -0.55629,-0.324241 -1.10912,-0.681627 -1.65258,-0.91858 -0.36896,-0.03813 -0.76862,-0.133453 -1.17685,-0.262455 -0.33148,-0.104759 -0.67148,-0.232277 -1.00574,-0.369076 -0.20999,-0.08606 -0.42346,-0.1805 -0.63851,-0.270665 -0.20869,-0.08858 -0.40481,-0.189034 -0.59259,-0.295259 -0.4527,-0.135809 -0.89485,-0.360614 -1.33125,-0.61512 -0.70642,-0.414306 -1.37457,-0.914884 -2.0699,-1.369683 -0.24708,-0.149908 -0.49858,-0.292137 -0.75118,-0.426481 -0.98966,-0.475048 -1.59481,-0.756531 -2.06574,-0.976004 -0.67744,0.427498 -1.1031,0.72184 -1.8362,1.131829 -0.50764,0.262653 -1.0974,0.507223 -1.66512,0.766864 -0.50674,0.231747 -0.99516,0.473709 -1.35628,0.750444 -0.52175,-0.611388 -0.85732,-1.133169 -0.7804,-1.246652 0.095,-0.140098 0.86683,-0.560564 1.71519,-0.93499 0.84839,-0.374417 1.81606,-1.076266 2.14503,-1.570622 0.32893,-0.494373 1.22855,-1.219251 1.99896,-1.607525 2.01943,-1.017773 3.76006,-3.503306 3.76006,-5.35979 0,-1.709218 -0.76408,-3.289849 -2.07826,-4.297685 -0.55976,-0.429278 -0.96962,-1.114079 -1.02243,-1.726447 -0.11052,-1.280067 -2.18671,-3.916966 -3.62234,-4.597043 -2.09063,-0.990376 -2.35165,-1.086729 -3.25928,-1.086729 -0.8059,0 -0.91182,-0.128861 -0.91811,-1.312265 0.63254,0.23389 1.28029,0.439952 1.94472,0.606929 1.05136,0.264202 2.1428,0.431264 3.25092,0.459292 1.37969,0.03266 2.77071,-0.15656 4.06053,-0.582318 0.79858,-0.283399 1.45563,-0.599622 2.01148,-0.910391 0.55586,-0.310762 1.00865,-0.617846 1.39803,-0.910385 0.38939,-0.292533 0.71687,-0.570866 1.00574,-0.840671 0.28888,-0.2698 0.53939,-0.529283 0.78039,-0.795558 0.26402,-0.292127 0.51302,-0.589081 0.76787,-0.918596 0.25486,-0.329507 0.51723,-0.692309 0.79291,-1.119526 0.32165,-0.476803 0.6422,-0.998386 0.93063,-1.554209 0.28843,-0.555833 0.54585,-1.14376 0.74282,-1.738761 0.19698,-0.594994 0.33335,-1.196018 0.40481,-1.767457 0.0822,-0.589095 0.43281,-1.477219 0.30464,-2.296474 -0.0225,0.04054 -0.0856,0.05384 -0.17527,0.110723 0.0312,-0.03989 0.0454,-0.05977 0.0792,-0.102525 0.18802,-0.560409 0.21235,-0.878278 0.16694,-1.472203 -0.0454,-0.593922 -0.19056,-1.185309 -0.39645,-1.755155 -0.20589,-0.569845 -0.47342,-1.121469 -0.75953,-1.648537 -0.2861,-0.527063 -0.59248,-1.030501 -0.88472,-1.533711 -0.14598,-0.187124 -0.37583,-0.539295 -0.6844,-0.939091 -0.30857,-0.399802 -0.69701,-0.847309 -1.12259,-1.234352 -0.14967,-0.135672 -0.30549,-0.264315 -0.45906,-0.381377 -0.63872,-0.480422 -1.32644,-0.918547 -2.05321,-1.299968 -0.72677,-0.381421 -1.48924,-0.703463 -2.26605,-0.963694 -0.77682,-0.260238 -1.56795,-0.455451 -2.34951,-0.586422 -0.78157,-0.130972 -1.55431,-0.199221 -2.29527,-0.209146 -0.38717,-0.0048 -0.76515,0.006 -1.13093,0.02869 -0.42862,0.06317 -0.83735,0.09847 -1.23945,0.13533 -0.40208,0.03686 -0.79772,0.07724 -1.18936,0.143529 -0.39165,0.06629 -0.78084,0.161517 -1.15598,0.315763 -0.37514,0.154247 -0.73464,0.366091 -1.06416,0.664341 -0.68044,0.261175 -1.33181,0.598546 -1.93637,1.0006 -0.60457,0.402058 -1.16256,0.866555 -1.66929,1.377878 -0.52647,0.532523 -0.99519,1.116283 -1.40636,1.726459 -0.41117,0.610178 -0.76771,1.249653 -1.07669,1.906887 -0.30899,0.657233 -0.57176,1.330443 -0.79708,2.017614 -0.22532,0.687166 -0.41216,1.387835 -0.57173,2.103727 -0.0106,0.38034 -0.0223,0.775004 -0.0249,1.181042 -0.006,0.996626 0.0472,2.064107 0.24205,3.120741 0.0974,0.528315 0.22712,1.049981 0.39644,1.554212 0.16933,0.504245 0.37704,0.988701 0.61764,1.435297 0.11844,0.156674 0.2484,0.32391 0.37559,0.487996 -0.37355,-0.297711 -0.77405,-0.591025 -1.22692,-0.873475 l -0.0792,-0.04512 c -1.00335,-0.179959 -1.69021,-0.145128 -2.6166,0.09431 -1.3256,0.342591 -1.50185,0.309871 -1.99897,-0.340364 -1.16943,-1.529734 -2.66773,-2.606658 -4.11061,-2.960803 -0.74994,-0.184065 -1.59078,-0.277998 -2.43298,-0.282961 -0.12031,-4.98e-4 -0.24295,0.0012 -0.36306,0.0038 -1.60139,0.03886 -3.17498,0.687269 -4.12312,1.279455 -1.31728,0.822792 -2.29248,1.773533 -2.14504,2.38669 0.0479,0.199014 0.0928,0.367302 0.13354,0.524906 -1.66696,-1.317563 -4.44349,-1.004923 -6.76476,0.21734 -3.0442597,1.525938 -4.0088097,4.304402 -3.8852497,6.417815 -0.41378,0.04416 -2.01946,-0.121986 -3.57226,0.03279 -0.0659,-1.719124 -0.1437,-3.444301 -0.11268,-5.179356 -0.83786,-4.530318 0.33619,-8.779055 -0.0834,-13.27851 -0.0161,-2.959931 -0.52421,-6.168003 -0.16694,-9.0300511 -0.0532,0.08753 -0.31376,-2.681111 -0.0751,-3.662049 -0.028,-1.00146 0.27187,-2.719729 0.12092,-3.562087 1.74683,-0.09321 3.98694,-0.364828 4.66845,0.05321 2.7827197,0.594224 6.1720897,-0.333134 8.5899197,-0.243388 2.14385,-0.275898 4.46059,-0.06904 6.98176,-0.455191 z m 24.89317,10.5473581 c 0.71948,0.003 1.44162,0.06342 2.15337,0.192735 0.71175,0.129311 1.41272,0.32656 2.07408,0.602825 0.81434,0.17618 1.64115,0.4904 2.41629,0.910385 0.77513,0.419983 1.49663,0.945878 2.11998,1.529613 0.58196,0.544193 1.07893,1.135489 1.49401,1.718251 0.15436,0.282896 0.52019,0.775902 0.86802,1.349175 0.17392,0.286634 0.3468,0.589831 0.49245,0.889878 0.14564,0.300053 0.26551,0.595182 0.35054,0.852974 0.11619,0.47257 0.24151,0.934147 0.3589,1.361479 0.52813,2.156332 -0.48222,3.430691 0.2629,2.435898 -0.14412,0.301267 -0.29675,0.755646 -0.43818,1.459901 -0.0359,0.322517 -0.39773,1.093758 -0.45487,1.427093 -0.0571,0.333336 -0.12895,0.661604 -0.21284,0.959591 -0.16776,0.595982 -0.38655,1.070656 -0.59259,1.242559 -0.34309,0.473904 -0.68087,0.987049 -1.04747,1.509102 -0.36662,0.52206 -0.76178,1.052176 -1.19354,1.546021 -0.40403,0.463577 -0.84303,0.89779 -1.2937,1.267158 -0.45066,0.369366 -0.91294,0.672641 -1.35629,0.889884 -0.76491,0.48098 -1.65588,0.848295 -2.61242,1.123632 -0.95655,0.275324 -1.97894,0.460757 -3.07148,0.590515 -0.10681,-0.0026 -0.21133,-0.007 -0.31716,-0.01233 -0.82479,-0.04086 -1.61746,-0.157372 -2.3829,-0.336272 -0.76544,-0.178899 -1.50344,-0.419329 -2.22432,-0.709441 -0.72087,-0.290119 -1.42356,-0.633331 -2.11581,-1.033417 -0.69226,-0.400086 -1.37421,-0.857855 -2.04488,-1.394283 -0.0419,-0.05228 -0.0834,-0.100504 -0.12519,-0.151724 -0.29391,-0.360615 -0.58664,-0.697384 -0.87219,-1.029319 -0.28557,-0.331928 -0.56658,-0.662222 -0.83047,-1.004698 -0.2639,-0.342482 -0.51019,-0.696189 -0.72197,-1.078523 -0.21178,-0.382335 -0.38883,-0.791736 -0.50496,-1.230249 -0.24177,-0.58417 -0.38662,-1.257585 -0.45488,-1.960204 -0.0682,-0.702618 -0.0594,-1.43204 -0.004,-2.161144 0.0572,-0.76731 0.16149,-1.531032 0.25038,-2.29647 0.26454,-1.100058 0.68129,-2.175103 1.23945,-3.186348 0.55817,-1.011244 1.26023,-1.959933 2.09495,-2.796769 1.33148,-1.33852 3.00376,-2.395474 4.84926,-3.071527 0.63302,-0.119008 1.26636,-0.222561 1.90715,-0.29526 0.6408,-0.07269 1.29013,-0.114266 1.94055,-0.110722 z m -0.12519,0.955492 c -0.33177,-0.004 -0.65475,0.0052 -0.96819,0.02461 -0.36729,0.05413 -0.7196,0.08734 -1.06416,0.118929 -0.34456,0.0316 -0.68267,0.06213 -1.01826,0.118923 -0.33561,0.05681 -0.6676,0.138478 -0.98906,0.270655 -0.99039,0.411703 -1.62752,0.927837 -2.5707,1.431197 -0.51805,0.344521 -1.00137,0.742877 -1.43557,1.181035 -0.45115,0.456322 -0.84955,0.95344 -1.20188,1.476307 -0.35234,0.522853 -0.65752,1.068938 -0.92228,1.632129 -0.26478,0.563198 -0.48715,1.141712 -0.68023,1.730555 -0.19309,0.588844 -0.35571,1.190916 -0.49245,1.804365 -0.01,0.325919 -0.0184,0.660868 -0.0208,1.008805 -0.006,0.854013 0.0376,1.768313 0.20448,2.673746 0.0834,0.452721 0.19711,0.904789 0.3422,1.336879 0.1451,0.432085 0.32383,0.84756 0.53001,1.230256 0.2933,0.387995 0.61609,0.806651 0.97652,1.230246 0.36043,0.42359 0.75736,0.851574 1.18936,1.258955 0.41747,0.392509 0.86501,0.762902 1.32709,1.099019 0.46206,0.336123 0.93825,0.635655 1.40637,0.89399 0.83323,0.358464 1.69899,0.66758 2.5999,0.893982 0.90091,0.226396 1.83814,0.369658 2.7877,0.393677 1.18225,0.02801 2.37103,-0.131359 3.47629,-0.496201 0.6843,-0.242843 1.25138,-0.512861 1.7277,-0.779162 0.47631,-0.266294 0.86404,-0.528475 1.1977,-0.779162 0.33366,-0.250666 0.61214,-0.490545 0.85969,-0.721738 0.24753,-0.231198 0.46535,-0.45667 0.67188,-0.68484 0.22625,-0.250325 0.4368,-0.505001 0.65519,-0.787361 0.21838,-0.28236 0.44399,-0.593516 0.68022,-0.959598 0.27563,-0.408579 0.54993,-0.856484 0.79709,-1.332771 0.24716,-0.476294 0.46553,-0.97875 0.63432,-1.488603 0.1688,-0.509853 0.44791,-1.306495 0.50914,-1.79617 0.0612,-0.489672 0.15407,-0.627788 0.10433,-1.033406 -0.004,-0.178011 -0.15919,0.08053 -0.0125,-0.533111 0.004,-0.05339 -0.007,-0.100802 -0.025,-0.143527 0.0979,-0.399957 0.12771,-0.815213 0.096,-1.230255 -0.0389,-0.508934 -0.16578,-1.016703 -0.3422,-1.50501 -0.17642,-0.4883 -0.40168,-0.959036 -0.64685,-1.410684 -0.24516,-0.45165 -0.50911,-0.885172 -0.75952,-1.316365 -0.1251,-0.160355 -0.32401,-0.461176 -0.58842,-0.803768 -0.26441,-0.342593 -0.59516,-0.72636 -0.95983,-1.058016 -0.12825,-0.116262 -0.26068,-0.22366 -0.39229,-0.323964 -0.54732,-0.411679 -1.13832,-0.788588 -1.76109,-1.115432 -0.62277,-0.32684 -1.27905,-0.605371 -1.94471,-0.828372 -0.66565,-0.222991 -1.34176,-0.388065 -2.01148,-0.5003 -0.66973,-0.112229 -1.33065,-0.171928 -1.96557,-0.180435 z m 0,0.725846 c 0.61651,0.0025 1.23464,0.05323 1.84456,0.164032 0.60989,0.110806 1.21105,0.279974 1.77778,0.516709 0.6978,0.150976 1.40986,0.41927 2.07408,0.77916 0.66421,0.359889 1.28119,0.812068 1.81534,1.31227 0.49867,0.466321 0.9213,0.972831 1.27699,1.472195 0.13227,0.242423 0.44895,0.665199 0.747,1.156443 0.14904,0.245612 0.29252,0.505638 0.41733,0.762753 0.1248,0.257108 0.23178,0.50904 0.30464,0.729948 0.0996,0.404948 0.20405,0.802549 0.30464,1.168739 0.0851,0.309595 0.0315,0.868655 0.0626,1.205643 -0.0966,0.111994 -0.0153,1.055597 -0.0709,1.205649 -0.11558,0.311795 -0.20538,0.689821 -0.26709,1.242549 -0.0309,0.27637 -0.21394,0.620659 -0.26291,0.906291 -0.049,0.285634 -0.19103,0.622229 -0.26289,0.877582 -0.14377,0.510693 -0.2533,0.861495 -0.42987,1.008805 -0.29396,0.406095 -0.58305,0.848513 -0.89722,1.295861 -0.31415,0.447349 -0.65245,0.897294 -1.02244,1.32047 -0.3462,0.397246 -0.71972,0.770208 -1.10589,1.086722 -0.38619,0.316513 -0.78443,0.576598 -1.16433,0.762753 -0.65545,0.412158 -1.41716,0.727767 -2.23683,0.963697 -0.81967,0.235936 -1.6971,0.397318 -2.6333,0.508504 -0.0915,-0.0026 -0.18057,-0.0078 -0.27124,-0.01233 -0.70676,-0.03499 -1.38479,-0.137859 -2.04071,-0.291158 -0.65591,-0.153293 -1.28943,-0.358323 -1.90715,-0.606924 -0.61773,-0.248607 -1.22215,-0.538842 -1.81535,-0.881685 -0.5932,-0.342838 -1.17804,-0.737774 -1.75274,-1.197439 -0.0358,-0.0448 -0.0686,-0.08734 -0.10434,-0.13123 -0.25185,-0.309006 -0.5023,-0.597247 -0.747,-0.88168 -0.2447,-0.284431 -0.48332,-0.563604 -0.70944,-0.857073 -0.22613,-0.293473 -0.44032,-0.599162 -0.6218,-0.926785 -0.18148,-0.327635 -0.33034,-0.678153 -0.42985,-1.053924 -0.20719,-0.500571 -0.3338,-1.075161 -0.39227,-1.677238 -0.0585,-0.602075 -0.0515,-1.23291 -0.004,-1.857681 0.0488,-0.657518 0.14082,-1.3084 0.217,-1.964304 0.22669,-0.942647 0.5817,-1.864613 1.05999,-2.731161 0.47831,-0.866537 1.07921,-1.677799 1.79449,-2.394884 1.14094,-1.146986 2.57509,-2.053427 4.1565,-2.632735 0.54243,-0.101975 1.0868,-0.191956 1.63591,-0.254251 0.54909,-0.0623 1.10358,-0.09736 1.66094,-0.09432 z m -24.33814,0.434692 c -1.57647,-0.0058 -3.24753,0.787957 -3.17581,2.649139 0.0949,2.462473 2.93148,3.107493 4.13566,2.796769 0.0134,-0.01575 0.16028,-0.09449 0.25456,-0.176336 0.16588,-0.0082 0.16602,-0.180927 0.17945,-0.418283 -0.33852,-0.35494 -1.54345,-1.210613 -1.55661,-2.271858 0.0154,-0.859733 1.65646,-1.992202 1.807,-1.956104 -0.0556,-0.177734 0.049,-0.291022 -0.16693,-0.360881 -0.4371,-0.170609 -0.95183,-0.260494 -1.47732,-0.262446 z m 0.43819,0.451094 c 0.17268,0.0025 0.33717,0.01937 0.48409,0.04512 0.6345,0.07084 -1.8677,0.505697 -1.7444,2.239054 0.11838,1.664024 1.46287,1.833776 1.56079,2.312873 -1.08333,-0.09774 -3.2831,-0.53022 -3.23841,-2.30057 0.0433,-1.715269 1.72923,-2.311884 2.93793,-2.296469 z m 1.21023,0.172233 c 0.003,0.0081 9.2e-4,0.01622 0.004,0.02461 0.004,-0.01168 0.004,-0.02142 -0.004,-0.02461 z m 47.23233,0.19274 c -0.70622,-0.0035 -1.33388,0.187532 -1.91968,0.623324 -0.25242,0.197264 -0.49848,0.414235 -0.61346,0.721752 -0.32821,0.613887 -0.62744,1.340674 -0.39229,2.038114 0.18777,0.592174 0.51052,1.275699 0.99322,1.636236 0.34766,0.306941 1.25066,0.687663 1.79448,0.664334 0.16518,0.02189 0.37098,-0.06352 0.58842,-0.03686 0.45146,-0.03001 0.95039,-0.159064 1.30622,-0.418289 0.82362,-0.768867 0.9167,-1.091565 1.07252,-1.81256 0.0137,-0.347027 0.12343,-0.811076 0.0751,-1.156443 -0.204,-0.211872 -0.2414,-0.463487 -0.35473,-0.738146 -0.37485,-0.723604 -0.94517,-1.125076 -1.81534,-1.455803 -0.25445,-0.04238 -0.49908,-0.06448 -0.73448,-0.0656 z m -0.15024,0.500299 c 0.31509,-0.01355 0.68976,0.04486 1.12676,0.246051 0.61283,0.233031 1.21081,0.973682 1.46063,1.734654 -0.0254,0.783312 -0.0424,1.578412 -1.22692,2.378487 -0.23577,0.08694 -0.717,0.196793 -1.06,0.270651 -0.0142,-0.02105 -0.0346,-0.03879 -0.0668,-0.05331 -0.59365,0.05551 -1.00107,-0.115731 -1.54826,-0.385472 -0.26691,-0.24536 -0.54709,-0.616115 -0.71361,-1.053918 -0.21949,-0.343348 -0.2721,-0.911598 -0.21702,-1.29997 0.19967,-0.611305 0.41827,-0.977051 0.964,-1.447594 0.17835,0.02214 0.58799,-0.359859 1.28118,-0.389578 z m -20.63232,3.157642 c 0,0 0.54741,2.391984 0.747,5.253175 0.13249,1.900066 0.14816,2.641252 0.11267,2.874691 -0.0179,0.118048 -0.0834,0.04925 -0.0834,0.04925 0,0 -0.77634,-1.51676 -1.64008,-2.964912 -0.80809,-1.35527 -1.95305,-3.071526 -1.95305,-3.071526 0,0 0.62916,-0.191442 1.13927,-0.799663 0.51012,-0.608383 0.39229,-1.316366 0.39229,-1.316366 -1.01498,0.208367 -2.20945,0.764374 -2.92959,0.652032 -1.20551,0.202415 -2.04578,-0.541438 -2.94628,-0.652032 0,0 -0.2216,0.289952 0.0668,0.94319 0.28821,0.653393 1.3062,1.107223 1.3062,1.107223 0,0 -1.21959,1.37113 -1.48565,2.632743 -0.26607,1.26162 -0.10851,1.644443 -0.10851,1.644443 0,0 1.42561,-1.062732 2.42463,-0.348579 0.36741,0.262559 0.78303,0.671437 0.83463,1.611631 0.0571,1.035741 -0.54446,1.661216 -1.11006,1.849482 -0.63424,0.211233 -1.50206,0.102402 -1.85707,-0.03279 -0.35486,-0.135058 -0.892,-0.385357 -1.43558,-1.185143 -0.5154,-0.758389 -0.74753,-2.248254 -0.54253,-4.145947 0.2312,-2.142791 1.21859,-4.076238 1.21859,-4.076238 -0.91203,0.131385 -1.8253,0.265479 -2.79605,0 0,0 0.3226,0.583524 0.40897,1.57062 0.0905,1.034792 0.0722,2.541017 0.0668,3.124844 -0.02,2.130347 0.32323,3.384124 0.85551,4.240269 0.53228,0.855975 1.70823,1.911705 3.17164,1.878178 1.61666,-0.03698 2.44119,-0.956201 2.79604,-1.541913 0.35487,-0.585712 0.65805,-1.413009 0.38394,-2.563022 -0.29117,-1.221324 -0.94385,-1.472565 -1.51487,-1.730558 -0.4534,-0.204791 -1.12242,-0.08934 -1.37299,-0.04099 -0.0625,0.01214 -0.0918,-0.02872 -0.0918,-0.02872 0,0 0.0787,-0.53395 0.35054,-0.947302 0.54824,-0.833474 1.13094,-1.070314 1.13094,-1.070314 0,0 0.0402,-0.03001 0.0793,0.0082 0.29768,0.291197 1.69038,1.389623 3.36361,4.084432 2.07426,3.340809 2.59989,5.786284 2.59989,5.786284 0,0 0.0674,0.07083 0.0668,-0.06152 -0.002,-0.725366 -0.0667,-3.303949 -0.0291,-6.085641 0.0442,-3.289346 0.70944,-6.647461 0.70944,-6.647461 -0.74296,0.160575 -1.52561,0.129332 -2.32865,0 z m -27.15504,8.238582 c 2.23442,0.0094 4.06453,1.052588 5.05793,2.960809 0.47825,0.918756 0.73569,1.088736 1.35211,0.910384 0.41859,-0.121069 1.88607,-0.20876 3.25927,-0.196838 1.1196,0.0096 1.84693,0.06496 2.52897,0.241947 0.14777,0.184592 0.2951,0.37404 0.45487,0.561816 0.42063,0.494328 0.88553,0.992698 1.38969,1.468101 0.48717,0.458052 1.00902,0.891311 1.54825,1.283561 0.51183,0.372317 1.04138,0.705593 1.56078,0.996506 0.0735,0.740219 -0.053,1.158593 -0.42984,1.443496 -0.91218,0.690084 -0.70066,0.946579 0.96401,1.181037 3.28895,0.463273 4.9546,1.166712 6.30571,2.669646 1.09777,1.221169 1.26351,1.610864 1.05582,2.47281 -0.21954,0.911198 -0.0654,1.19073 1.41889,2.505604 1.47601,1.307592 1.66929,1.6422 1.66929,2.911601 0,0.789201 -0.25779,1.894476 -0.56757,2.460499 -0.58836,1.075044 -2.47825,2.714753 -3.13407,2.714753 -0.20929,0 -1.00214,0.641144 -1.76109,1.427097 -1.78056,1.843859 -3.68154,2.47138 -5.8717,1.927387 -0.85933,-0.213439 -2.95832,-0.356288 -4.65729,-0.31166 -2.59098,0.06808 -3.33845,-0.03255 -4.6114,-0.643832 -2.16458,-1.039373 -4.79709,-1.212382 -8.92648,-0.598727 -1.94668,0.289332 -4.68397,0.516708 -6.09705,0.516708 -1.62033,0 -2.49116,0.123275 -2.3495,0.332172 0.29396,0.433587 6.89827,0.434791 8.53836,0 0.69827,-0.185103 2.53289,-0.352637 4.07723,-0.373184 2.41388,-0.03219 3.10369,0.09045 4.90768,0.910396 1.8869,0.857775 2.41308,0.949702 5.16642,0.869384 3.63214,-0.106018 5.30588,0.314673 6.00941,1.521407 0.28326,0.485858 0.93634,1.295874 1.45228,1.792064 0.51594,0.49619 1.50414,1.791119 2.20346,2.878779 0.69935,1.087633 2.07753,2.054267 2.32446,2.292372 0.42871,0.413359 3.69756,2.896282 5.5754,4.613442 -0.4917,0.0486 -0.97713,0.0968 -1.48148,0.14764 -3.01153,0.30317 -6.25403,0.6489 -9.74026,1.02111 -0.12847,0.0138 -0.25627,0.0273 -0.38393,0.041 -3.37571,0.36048 -6.46204,0.69139 -9.28955,0.9801 -1.18346,0.12076 -2.32229,0.23749 -3.41368,0.34037 -1.09139,0.10288 -2.13695,0.19116 -3.14242,0.25835 -2.38042,0.15883 -4.52378,0.29287 -6.45595,0.37318 -1.93216,0.0803 -3.65437,0.10949 -5.18729,0.0943 -1.49228,-0.0147 -2.80515,-0.0719 -3.96038,-0.14353 -1.15522,-0.0716 -2.1526997,-0.15708 -3.0130397,-0.24196 -0.86035,-0.0849 -1.5815,-0.1685 -2.19093,-0.24194 -0.60946,-0.0734 -1.10416,-0.13735 -1.50653,-0.18863 -0.80476,-0.10257 -1.23935,-0.15693 -1.47315,-0.17634 -0.23378,-0.0194 -0.26709,-0.008 -0.26709,-0.008 0,0 0.0342,0.032 0.26709,0.11482 0.2329,0.0828 0.6648,0.21873 1.4648,0.41829 0.39999,0.0998 0.8915,0.21537 1.49817,0.34036 0.60669,0.125 1.32887,0.26167 2.18677,0.39778 0.8579,0.13612 1.8510097,0.2701 3.0046997,0.38958 1.15371,0.11948 2.4644,0.22238 3.9562,0.27886 1.55232,0.0584 3.29576,0.0691 5.24572,0.0205 1.94995,-0.0486 4.10985,-0.1565 6.4935,-0.29937 1.02025,-0.061 2.07628,-0.1465 3.17581,-0.24605 1.09953,-0.0995 2.23951,-0.21584 3.42203,-0.33627 2.83307,-0.28826 5.92432,-0.62654 9.2979,-1.0088 0.107,-0.0121 0.21376,-0.0247 0.32134,-0.0369 3.286,-0.37293 6.57164,-0.74268 9.7945,-1.08673 3.08258,-0.32906 6.10738,-0.64008 9.03082,-0.90218 3.81806,-0.34247 7.47309,-0.47825 10.83363,-0.52491 3.65222,-0.0507 6.95869,0.0104 9.7653,0.10662 3.57481,0.19996 5.97143,0.34042 7.63696,0.43879 0.0289,1.03543 0.0234,2.0563 0.0124,3.08384 -0.16375,-0.0169 -0.30993,-0.0321 -0.49661,-0.0493 -0.37708,-0.0345 -0.80153,-0.0661 -1.28118,-0.0902 -0.47965,-0.0242 -1.01588,-0.0397 -1.61086,-0.0369 -1.16415,0.006 -2.55288,0.0692 -4.19824,0.22555 -0.82268,0.0781 -1.70699,0.18083 -2.6625,0.30347 -0.95551,0.12262 -1.97882,0.26809 -3.07565,0.42647 -0.82613,0.11896 -1.68641,0.28467 -2.57487,0.48391 -0.85359,0.19134 -1.73856,0.39312 -2.66668,0.57411 -0.75538,0.14746 -1.54127,0.28496 -2.36203,0.4142 -0.67841,0.10681 -1.35998,0.20476 -2.0407,0.29524 -2.63254,0.3498 -5.25715,0.60532 -7.76633,0.82018 -2.72852,0.23353 -5.32636,0.35774 -7.67034,0.39367 -2.34398,0.036 -4.4328,-0.0168 -6.14713,-0.10662 -1.57197,-0.0824 -2.82433,-0.19576 -3.6766,-0.29116 -0.41381,-0.0463 -0.73338,-0.089 -0.94731,-0.11892 -0.10566,-0.0148 -0.18444,-0.0246 -0.23788,-0.0329 -0.0266,-0.004 -0.0493,-0.0101 -0.0626,-0.0123 -0.007,-9e-4 -0.01,5e-4 -0.0124,0 l -0.004,0 c 0,0 -0.004,0.002 0,0.008 0.003,0.004 0.0101,0.01 0.0166,0.0163 0.0104,0.0102 0.0265,0.0239 0.0543,0.041 0.044,0.027 0.11481,0.0621 0.22951,0.10662 0.18059,0.0703 0.46795,0.16279 0.93062,0.27065 0.7215,0.16821 1.86669,0.3785 3.68077,0.55771 1.39092,0.13743 3.17714,0.25578 5.46273,0.28707 2.28559,0.0313 5.07275,-0.0278 8.45074,-0.28296 1.15428,-0.0871 2.38089,-0.18593 3.68076,-0.30755 1.29989,-0.12164 2.67177,-0.26733 4.12313,-0.447 0.65915,-0.0815 1.33658,-0.16892 2.02817,-0.27066 0.84515,-0.12432 1.65561,-0.25839 2.43716,-0.40597 0.95261,-0.18008 1.84888,-0.38359 2.70005,-0.57413 0.87225,-0.1952 1.70511,-0.36092 2.49976,-0.4798 1.09683,-0.16372 2.1155,-0.31553 3.06312,-0.45109 0.94763,-0.13556 1.82234,-0.25515 2.6333,-0.35267 1.62193,-0.19506 2.98433,-0.30976 4.1273,-0.37318 0.5808,-0.0323 1.10461,-0.049 1.57747,-0.0574 0.47285,-0.008 0.89381,-0.009 1.26865,-0.008 0.19732,2.1e-4 0.35347,-1.4e-4 0.52583,0 -0.0144,1.3269 -0.0239,2.67743 0.0376,4.11314 0.029,2.46543 0.0748,5.12667 0.45488,7.22977 -2.01563,-0.29896 -4.08146,-0.006 -6.10957,0.14353 -0.67742,-0.34509 -3.88388,0.11975 -5.29791,-0.006 -3.95415,0.25251 -6.70056,0.32678 -10.11791,0.0511 -1.9898,0.33137 -3.46982,-0.0436 -5.41681,0.3826 -5.0509,0.15099 -10.27824,0.16704 -15.37408,-0.3867 -2.58867,0.2523 -5.7494,0.28884 -8.4751,0.22877 -2.65281,0.13995 -5.76665,0.25549 -8.55276,0.0894 -3.74825,0.30972 -7.69675,0.21824 -11.66233,0.15348 -3.1899,-0.052 -6.6963,-0.073 -10.06218,0.0534 -2.1090097,0.0217 -5.2627297,-0.28273 -7.3525897,-0.18805 -0.0677,-1.71013 0.0127,-3.17687 0.0114,-4.87941 1.06717,0.19396 3.23467,0.30527 5.65947,0.62625 0.88798,0.1043 1.8867997,0.21102 3.0088697,0.31577 1.12208,0.10474 2.36728,0.20693 3.75171,0.29525 0.98589,0.0629 2.04269,0.12094 3.17581,0.15994 1.13313,0.0391 2.34033,0.0592 3.63069,0.041 1.58534,-0.0232 3.28362,-0.13675 5.09548,-0.33217 1.81185,-0.19543 3.73844,-0.47328 5.78824,-0.78737 1.19755,-0.18314 2.4395,-0.36797 3.73084,-0.529 0.5531,-0.0689 1.09898,-0.13009 1.63172,-0.18454 2.34251,-0.23968 4.49469,-0.33827 6.46428,-0.35677 1.09819,-0.0106 2.13934,0.0145 3.12574,0.0574 0.9864,0.0429 1.91624,0.10273 2.79606,0.17224 1.75961,0.13901 3.31498,0.30952 4.68233,0.4634 1.22961,0.13844 2.30844,0.26957 3.25927,0.38958 0.95082,0.11999 1.77013,0.22759 2.47887,0.31985 1.41748,0.18453 2.38694,0.30995 3.05062,0.38549 1.32737,0.15109 1.43141,0.11072 1.43141,0.11072 0,0 -0.10886,-0.0957 -1.42306,-0.41008 -0.65711,-0.15721 -1.61257,-0.36834 -3.01306,-0.63563 -0.70025,-0.13364 -1.51428,-0.28181 -2.45384,-0.4388 -0.93956,-0.15698 -2.0059,-0.32373 -3.22172,-0.49209 -1.36833,-0.18984 -2.92759,-0.39142 -4.70319,-0.55361 -0.88781,-0.0811 -1.82954,-0.15055 -2.82944,-0.20095 -0.99991,-0.0504 -2.05754,-0.0815 -3.1758,-0.0738 -1.99608,0.0145 -4.18179,0.11701 -6.55611,0.37317 -0.52569,0.0568 -1.05925,0.12138 -1.60252,0.19274 -1.27495,0.16747 -2.54077,0.36512 -3.79761,0.56592 -1.84795,0.29481 -3.68285,0.57752 -5.48358,0.79145 -1.80074,0.21395 -3.57057,0.35862 -5.28746,0.39779 -2.37581,0.0548 -4.6472,-0.0202 -6.75642,-0.12303 -2.5117,-0.12254 -4.78926,-0.29832 -6.7438897,-0.4675 -2.16795,-0.21973 -4.63484,-0.46889 -5.88481,-0.59929 -0.002,-0.26471 -0.003,-0.48377 -0.009,-0.7487 0.29669,0.0239 1.34419,0.0708 1.67405,0.089 1.8034,0.10064 4.12314,0.10594 7.0694097,-0.11892 1.96093,-0.14952 4.20238,-0.39965 6.74807,-0.80787 1.67813,-0.26901 3.49091,-0.60068 5.4377,-1.05392 1.12903,-0.26295 2.31752,-0.51464 3.56391,-0.74635 2.48575,-0.46211 4.73166,-0.75863 6.74806,-0.95549 2.01641,-0.19687 3.80117,-0.2946 5.37926,-0.34037 2.85265,-0.0825 5.0259,-0.007 6.66879,0.0861 0.82144,0.0461 1.51041,0.0958 2.09077,0.14353 0.58036,0.0477 1.04986,0.0914 1.4314,0.12712 0.76312,0.0715 1.1722,0.11073 1.38969,0.12302 0.21748,0.0123 0.24204,0 0.24204,0 0,0 -0.0274,-0.0206 -0.24622,-0.0861 -0.21883,-0.0655 -0.62566,-0.17616 -1.38966,-0.32397 -0.38202,-0.0739 -0.85454,-0.15581 -1.43561,-0.24195 -0.58106,-0.0861 -1.27261,-0.17692 -2.09493,-0.25835 -1.64464,-0.16287 -3.81507,-0.29869 -6.66045,-0.25426 -1.59021,0.0246 -3.39409,0.11004 -5.42515,0.30347 -2.03107,0.19342 -4.29228,0.49499 -6.7898,0.976 -1.21898,0.23476 -2.43062,0.49678 -3.62652,0.78326 -1.8102,0.43385 -3.61956,0.78612 -5.38761,1.08261 -2.33024,0.39071 -4.58791,0.67527 -6.6938,0.86118 -1.30998,0.11561 -2.5613497,0.19416 -3.7350397,0.23375 -1.17367,0.0395 -2.27175,0.0403 -3.27179,0.0123 -0.33233,-0.009 -1.53163,-0.0687 -1.84217,-0.0838 -0.0165,-0.52583 0.0556,-2.19956 0.0119,-2.72705 -0.32445,-2.55425 -0.01,-3.53264 -0.0143,-5.89935 0.10428,-3.25478 -0.15717,-7.230887 0.0412,-10.170085 0.0474,-0.702399 0.21433,-0.435807 0.20091,-1.152332 1.34193,-1.53771 2.59156,-3.208811 2.59156,-3.539022 0,-0.107169 0.39397,-0.674892 0.87637,-1.254852 0.4824,-0.57997 1.38908,-2.099633 2.01984,-3.374996 2.0559397,-4.157371 2.5362497,-4.933892 4.2816997,-6.996028 4.85469,-5.7355 5.94539,-7.061677 6.37247,-7.783395 1.76632,-2.984566 3.71276,-4.9292 4.94943,-4.9292 1.18514,0 2.17232,1.054931 4.75745,5.052231 1.44639,2.236543 2.74378,4.132771 2.87534,4.223862 0.13163,0.09109 1.32742,1.782298 2.66668,3.748163 3.01298,4.422676 3.40853,4.097015 -4.63225,3.871194 -2.81023,-0.07895 -3.68023,0.03147 -6.17635,0.82837 -3.14821,1.005013 -3.30738,1.072104 -3.0214,1.332769 0.10506,0.09577 1.88922,-0.214832 3.96454,-0.693046 3.74923,-0.863925 6.20987,-0.932122 9.62759,-0.287049 0.74297,0.140216 1.59947,-5.03e-4 2.54565,-0.405988 1.76493,-0.755902 2.0254,-1.749594 0.71362,-2.690151 -0.86533,-0.620452 -1.24317,-1.398385 -0.68024,-1.398385 0.34493,0 2.65704,0.683443 3.74754,1.107227 1.34297,0.521898 2.54566,1.587977 2.54566,2.247257 0,0.873539 -1.89955,2.419783 -3.58896,2.927995 -1.25411,0.377348 -1.9311,0.378858 -4.13564,0.01232 -4.22431,-0.702308 -10.17544,-0.582163 -12.99118,0.266556 -1.29923,0.391619 -3.49181,0.758977 -4.87431,0.807868 -1.69206,0.0598 -2.57134,0.233851 -2.67919,0.529011 -0.12771,0.349338 0.50285,0.401978 3.0673,0.278857 3.55221,-0.170573 5.53046,-0.473781 6.18885,-0.951401 1.05272,-0.763654 9.15644,-0.606686 12.93694,0.250154 2.1873,0.495739 6.37579,-1.41423 6.99429,-3.190458 0.49396,-1.418655 -1.77812,-4.095254 -3.79344,-4.469904 -0.51718,-0.09614 -1.51222,-0.315627 -2.2118,-0.479806 -0.69957,-0.16417 -1.72473,-0.380342 -2.27439,-0.483897 -0.54967,-0.10358 -0.9974,-0.33477 -0.9974,-0.5167 0,-0.181939 -0.82012,-1.532999 -1.81951,-3.001813 -0.9994,-1.468781 -1.81535,-2.75327 -1.81535,-2.85828 0,-0.105017 -0.41006,-0.678193 -0.90975,-1.275363 -1.21935,-1.457187 -1.14606,-1.800263 0.3881,-1.800263 1.42314,0 2.38392,0.384492 3.45124,1.357373 0.89865,0.819144 0.88545,1.143534 -0.0918,1.767465 -0.43766,0.279417 -0.70972,0.585693 -0.60094,0.684836 0.10881,0.09915 1.27768,0.301899 2.5999,0.446993 2.36315,0.25931 3.88525,1.003893 3.88525,1.894583 0,0.223806 -0.32637,0.482952 -0.72614,0.578216 -1.37323,0.32736 -0.7515,0.894157 0.99741,0.910387 2.23166,0.0206 4.07407,0.870301 4.79501,2.214454 0.61519,1.147 1.11007,1.403107 1.11007,0.570016 0,-1.554013 -1.69462,-3.068542 -4.00628,-3.571826 -0.63609,-0.138471 -1.0724,-0.565286 -1.39802,-1.386081 -0.478,-1.204932 -1.57605,-1.883538 -3.78092,-2.308774 -0.55825,-0.107663 -1.10429,-0.45345 -1.2144,-0.766851 -0.95637,-2.72208 -2.06275,-3.453114 -5.27077,-3.510324 -2.0119,-0.03589 -2.17125,-0.09714 -3.00053,-1.209747 -0.99271,-1.3318 -2.97707,-2.096263 -4.03966,-1.554219 -1.16086,0.592168 -2.40284,1.709015 -3.71415,3.33398 -1.05228,1.304017 -1.4502,1.564862 -2.12417,1.410692 -1.02435,-0.234368 -3.56494,0.946571 -4.72406,2.202155 -0.91344,0.989439 -1.47906,1.108792 -2.7960497,0.561811 -2.00878,-0.834288 -1.88559,-4.087923 0.2295397,-6.015936 1.21969,-1.111741 4.0068,-2.343972 5.01618,-2.251356 1.12334,0.09245 2.05484,0.0815 2.59574,0.205043 0.16073,0.555347 0.27874,0.692949 0.43401,0.25015 0.73384,-2.093073 1.73788,-2.919807 4.60304,-3.608735 0.67984,-0.163466 1.33577,-0.240486 1.96141,-0.237846 z m -7.30727,9.358117 c 0.45234,0 0.13902,1.123806 -0.55922,2.017614 -0.7627,0.976324 -1.56928,1.194153 -2.48723,0.664335 -0.77982,-0.450087 -0.2225,-1.249324 1.3855,-1.997108 0.80134,-0.37264 1.55305,-0.684841 1.66095,-0.684841 z M 5.1644143,38.544198 c 0.096,-0.0012 0.1906,-0.002 0.28377,0 1.24224,0.02466 2.25226,0.304599 2.80439,0.807862 0.54178,0.493818 0.49494,0.589695 -0.54669,1.332779 -1.23312,0.879632 -2.19981,2.647831 -2.20344,4.018817 0,0.71149 -0.28289,0.972605 -1.5441,1.4476 -0.37557,0.141456 -0.72453,0.317847 -1.04329,0.51671 -0.009,-0.0714 -0.0213,-0.145404 -0.0334,-0.217351 0.53964,-2.574475 0.55869,-5.151997 0.47992,-7.746487 0.62694,-0.105533 1.23809,-0.155307 1.80282,-0.15993 z m 7.1278297,1.582924 c 0.85904,-0.0058 1.66614,0.141706 2.12416,0.446995 0.67289,0.448459 0.64687,0.524332 -0.77204,2.066819 -1.70282,1.851062 -4.9057497,6.187908 -5.4710697,7.402016 -0.21217,0.455481 -0.65226,1.387703 -0.97654,2.07092 -0.45217,0.952607 -0.80505,1.242561 -1.48983,1.242561 -0.49113,0 -0.99072,-0.149981 -1.11425,-0.332172 -0.12352,-0.182201 -0.44873,-0.328071 -0.73448,-0.328071 -0.33203,0 -0.63533,-0.105848 -0.90141,-0.282958 0.004,-0.06016 0.005,-0.120522 0.009,-0.180437 -0.66502,-1.493064 -0.25,-2.817426 -0.0834,-4.166454 0.98809,-0.713863 2.75717,-1.332769 4.0647,-1.332769 1.52741,0 2.01493,-0.589743 0.73866,-0.893986 -0.76282,-0.181759 -0.85881,-0.406573 -0.73866,-1.75926 0.0957,-1.077796 1.58246,-2.848401 2.91708,-3.477503 0.6634497,-0.312712 1.5697597,-0.470021 2.4287997,-0.475701 z M 2.9067043,53.446651 c 0.68631,0.492727 1.51691,0.902178 2.04904,0.902178 0.80278,0 0.6769,0.568361 -0.4507,2.021715 -0.65641,0.846013 -0.961,1.13647 -1.63589,1.23025 -0.015,-1.411209 -0.0128,-2.809225 0.0376,-4.154143 z m 46.9068097,4.469903 c 0.2672,0.14339 0.52919,0.293641 0.74701,0.463395 0.25337,0.130666 0.51413,0.290071 0.78038,0.463395 0.26626,0.173334 0.53816,0.357521 0.83047,0.533102 0.26667,0.14634 0.54739,0.287382 0.85133,0.401888 0.43926,0.335617 0.86823,0.653113 1.31038,0.947302 0.30741,0.205049 0.62016,0.399046 0.95567,0.574106 0.33552,0.175079 0.69245,0.331992 1.07669,0.447002 0.20773,0.06114 0.41935,0.125037 0.64267,0.18453 0.11176,0.02976 0.22674,0.05835 0.34221,0.08614 0.20116,0.15624 0.41317,0.261233 0.63015,0.344473 0.63988,0.245496 1.32855,0.273516 1.9322,0.672536 0.30043,0.104831 0.60192,0.277617 0.90975,0.471604 0.64016,0.403399 1.31084,0.899984 2.09495,1.066215 1.76236,0.798147 3.64338,1.452876 5.55036,2.013509 0.19248,0.05653 0.38717,0.113423 0.58007,0.168144 1.10787,0.770749 2.47304,1.083185 3.68912,1.730538 1.09099,0.14607 2.20606,0.5982 3.17998,0.9924 0.13399,0.0542 0.26824,0.10452 0.39646,0.15584 0.24531,0.16901 1.00263,0.31302 1.53156,0.4839 -1.32856,-0.036 -2.76927,-0.0578 -4.34013,-0.0574 -1.55784,2.2e-4 -3.24225,0.0237 -5.05792,0.0861 -1.81568,0.0626 -3.76196,0.16506 -5.85083,0.33627 -1.73688,0.14243 -3.58438,0.31053 -5.52116,0.4962 -1.15317,-0.79791 -2.5426,-1.7907 -3.43454,-2.47693 -2.06644,-1.589801 -5.20488,-4.296385 -5.8091,-5.162935 -0.54761,-0.785352 -1.49623,-1.974165 -2.22015,-2.776278 0.14934,-0.05827 0.31288,-0.162174 0.47992,-0.287049 0.26727,-0.199816 0.55253,-0.450455 0.80961,-0.643841 0.25706,-0.193377 0.48295,-0.330994 0.60928,-0.30346 0.37191,-0.09305 0.74795,-0.310941 1.13511,-0.574115 0.38717,-0.263175 0.78718,-0.571607 1.1685,-0.836571 z"
       id="path3842" />
  </g>
</svg>
